solid OpenSCAD_Model
  facet normal -1 0 0
    outer loop
      vertex -10 -10 0
      vertex -10 10 20
      vertex -10 10 0
    endloop
  endfacet
  facet normal -1 -0 0
    outer loop
      vertex -10 10 20
      vertex -10 -10 0
      vertex -10 -10 20
    endloop
  endfacet
  facet normal 0 0 1
    outer loop
      vertex 10 10 20
      vertex 7 0 20
      vertex 10 -10 20
    endloop
  endfacet
  facet normal 0 0 1
    outer loop
      vertex 10 10 20
      vertex 6.71645 1.97213 20
      vertex 7 0 20
    endloop
  endfacet
  facet normal 0 0 1
    outer loop
      vertex 10 10 20
      vertex 5.88877 3.78448 20
      vertex 6.71645 1.97213 20
    endloop
  endfacet
  facet normal 0 0 1
    outer loop
      vertex 10 10 20
      vertex 4.58402 5.29025 20
      vertex 5.88877 3.78448 20
    endloop
  endfacet
  facet normal 0 0 1
    outer loop
      vertex 10 10 20
      vertex 2.9079 6.36742 20
      vertex 4.58402 5.29025 20
    endloop
  endfacet
  facet normal 0 0 1
    outer loop
      vertex 10 10 20
      vertex 0.996203 6.92875 20
      vertex 2.9079 6.36742 20
    endloop
  endfacet
  facet normal 0 0 1
    outer loop
      vertex 10 10 20
      vertex -0.996203 6.92875 20
      vertex 0.996203 6.92875 20
    endloop
  endfacet
  facet normal 0 0 1
    outer loop
      vertex -6.71645 1.97213 20
      vertex -10 10 20
      vertex -7 0 20
    endloop
  endfacet
  facet normal 0 0 1
    outer loop
      vertex -5.88877 3.78448 20
      vertex -10 10 20
      vertex -6.71645 1.97213 20
    endloop
  endfacet
  facet normal 0 0 1
    outer loop
      vertex -4.58402 5.29025 20
      vertex -10 10 20
      vertex -5.88877 3.78448 20
    endloop
  endfacet
  facet normal 0 0 1
    outer loop
      vertex -2.9079 6.36742 20
      vertex -10 10 20
      vertex -4.58402 5.29025 20
    endloop
  endfacet
  facet normal 0 0 1
    outer loop
      vertex -0.996203 6.92875 20
      vertex -10 10 20
      vertex -2.9079 6.36742 20
    endloop
  endfacet
  facet normal -0 0 1
    outer loop
      vertex -10 10 20
      vertex -0.996203 6.92875 20
      vertex 10 10 20
    endloop
  endfacet
  facet normal -0 0 1
    outer loop
      vertex 6.71645 -1.97213 20
      vertex 10 -10 20
      vertex 7 0 20
    endloop
  endfacet
  facet normal -0 0 1
    outer loop
      vertex 5.88877 -3.78448 20
      vertex 10 -10 20
      vertex 6.71645 -1.97213 20
    endloop
  endfacet
  facet normal -0 0 1
    outer loop
      vertex 4.58402 -5.29025 20
      vertex 10 -10 20
      vertex 5.88877 -3.78448 20
    endloop
  endfacet
  facet normal -0 0 1
    outer loop
      vertex 2.9079 -6.36742 20
      vertex 10 -10 20
      vertex 4.58402 -5.29025 20
    endloop
  endfacet
  facet normal -0 0 1
    outer loop
      vertex 0.996203 -6.92875 20
      vertex 10 -10 20
      vertex 2.9079 -6.36742 20
    endloop
  endfacet
  facet normal -0 0 1
    outer loop
      vertex -0.996203 -6.92875 20
      vertex 10 -10 20
      vertex 0.996203 -6.92875 20
    endloop
  endfacet
  facet normal 0 0 1
    outer loop
      vertex -10 -10 20
      vertex -7 0 20
      vertex -10 10 20
    endloop
  endfacet
  facet normal 0 0 1
    outer loop
      vertex -0.996203 -6.92875 20
      vertex -10 -10 20
      vertex 10 -10 20
    endloop
  endfacet
  facet normal 0 0 1
    outer loop
      vertex -2.9079 -6.36742 20
      vertex -10 -10 20
      vertex -0.996203 -6.92875 20
    endloop
  endfacet
  facet normal 0 0 1
    outer loop
      vertex -4.58402 -5.29025 20
      vertex -10 -10 20
      vertex -2.9079 -6.36742 20
    endloop
  endfacet
  facet normal 0 0 1
    outer loop
      vertex -5.88877 -3.78448 20
      vertex -10 -10 20
      vertex -4.58402 -5.29025 20
    endloop
  endfacet
  facet normal 0 0 1
    outer loop
      vertex -6.71645 -1.97213 20
      vertex -10 -10 20
      vertex -5.88877 -3.78448 20
    endloop
  endfacet
  facet normal 0 0 1
    outer loop
      vertex -7 0 20
      vertex -10 -10 20
      vertex -6.71645 -1.97213 20
    endloop
  endfacet
  facet normal 1 -0 0
    outer loop
      vertex 10 -10 20
      vertex 10 10 0
      vertex 10 10 20
    endloop
  endfacet
  facet normal 1 0 0
    outer loop
      vertex 10 10 0
      vertex 10 -10 20
      vertex 10 -10 0
    endloop
  endfacet
  facet normal 0 1 0
    outer loop
      vertex 10 10 20
      vertex 0.996203 10 16.9287
      vertex -10 10 20
    endloop
  endfacet
  facet normal 0 1 0
    outer loop
      vertex 10 10 20
      vertex 2.9079 10 16.3674
      vertex 0.996203 10 16.9287
    endloop
  endfacet
  facet normal 0 1 0
    outer loop
      vertex 10 10 20
      vertex 4.58402 10 15.2902
      vertex 2.9079 10 16.3674
    endloop
  endfacet
  facet normal 0 1 0
    outer loop
      vertex 10 10 20
      vertex 5.88877 10 13.7845
      vertex 4.58402 10 15.2902
    endloop
  endfacet
  facet normal 0 1 0
    outer loop
      vertex 10 10 20
      vertex 6.71645 10 11.9721
      vertex 5.88877 10 13.7845
    endloop
  endfacet
  facet normal 0 1 0
    outer loop
      vertex 10 10 20
      vertex 7 10 10
      vertex 6.71645 10 11.9721
    endloop
  endfacet
  facet normal 0 1 -0
    outer loop
      vertex 10 10 0
      vertex 7 10 10
      vertex 10 10 20
    endloop
  endfacet
  facet normal 0 1 0
    outer loop
      vertex 0.996203 10 3.07125
      vertex 10 10 0
      vertex -0.996203 10 3.07125
    endloop
  endfacet
  facet normal 0 1 0
    outer loop
      vertex 2.9079 10 3.63258
      vertex 10 10 0
      vertex 0.996203 10 3.07125
    endloop
  endfacet
  facet normal 0 1 0
    outer loop
      vertex 4.58402 10 4.70975
      vertex 10 10 0
      vertex 2.9079 10 3.63258
    endloop
  endfacet
  facet normal 0 1 0
    outer loop
      vertex 5.88877 10 6.21551
      vertex 10 10 0
      vertex 4.58402 10 4.70975
    endloop
  endfacet
  facet normal 0 1 0
    outer loop
      vertex 6.71645 10 8.02787
      vertex 10 10 0
      vertex 5.88877 10 6.21551
    endloop
  endfacet
  facet normal 0 1 0
    outer loop
      vertex 7 10 10
      vertex 10 10 0
      vertex 6.71645 10 8.02787
    endloop
  endfacet
  facet normal 0 1 -0
    outer loop
      vertex -0.996203 10 16.9287
      vertex -10 10 20
      vertex 0.996203 10 16.9287
    endloop
  endfacet
  facet normal 0 1 -0
    outer loop
      vertex -2.9079 10 16.3674
      vertex -10 10 20
      vertex -0.996203 10 16.9287
    endloop
  endfacet
  facet normal 0 1 -0
    outer loop
      vertex -4.58402 10 15.2902
      vertex -10 10 20
      vertex -2.9079 10 16.3674
    endloop
  endfacet
  facet normal 0 1 -0
    outer loop
      vertex -5.88877 10 13.7845
      vertex -10 10 20
      vertex -4.58402 10 15.2902
    endloop
  endfacet
  facet normal 0 1 -0
    outer loop
      vertex -6.71645 10 11.9721
      vertex -10 10 20
      vertex -5.88877 10 13.7845
    endloop
  endfacet
  facet normal 0 1 -0
    outer loop
      vertex -7 10 10
      vertex -10 10 20
      vertex -6.71645 10 11.9721
    endloop
  endfacet
  facet normal 0 1 0
    outer loop
      vertex -10 10 0
      vertex -7 10 10
      vertex -6.71645 10 8.02787
    endloop
  endfacet
  facet normal 0 1 0
    outer loop
      vertex -7 10 10
      vertex -10 10 0
      vertex -10 10 20
    endloop
  endfacet
  facet normal 0 1 0
    outer loop
      vertex -5.88877 10 6.21551
      vertex -10 10 0
      vertex -6.71645 10 8.02787
    endloop
  endfacet
  facet normal 0 1 0
    outer loop
      vertex -4.58402 10 4.70975
      vertex -10 10 0
      vertex -5.88877 10 6.21551
    endloop
  endfacet
  facet normal 0 1 0
    outer loop
      vertex -2.9079 10 3.63258
      vertex -10 10 0
      vertex -4.58402 10 4.70975
    endloop
  endfacet
  facet normal 0 1 0
    outer loop
      vertex -0.996203 10 3.07125
      vertex -10 10 0
      vertex -2.9079 10 3.63258
    endloop
  endfacet
  facet normal 0 1 0
    outer loop
      vertex -10 10 0
      vertex -0.996203 10 3.07125
      vertex 10 10 0
    endloop
  endfacet
  facet normal 0 0 -1
    outer loop
      vertex 10 -10 0
      vertex 7 0 0
      vertex 10 10 0
    endloop
  endfacet
  facet normal 0 0 -1
    outer loop
      vertex 10 -10 0
      vertex 6.71645 -1.97213 0
      vertex 7 0 0
    endloop
  endfacet
  facet normal 0 0 -1
    outer loop
      vertex 10 -10 0
      vertex 5.88877 -3.78448 0
      vertex 6.71645 -1.97213 0
    endloop
  endfacet
  facet normal 0 0 -1
    outer loop
      vertex 10 -10 0
      vertex 4.58402 -5.29025 0
      vertex 5.88877 -3.78448 0
    endloop
  endfacet
  facet normal 0 0 -1
    outer loop
      vertex 10 -10 0
      vertex 2.9079 -6.36742 0
      vertex 4.58402 -5.29025 0
    endloop
  endfacet
  facet normal 0 0 -1
    outer loop
      vertex 10 -10 0
      vertex 0.996203 -6.92875 0
      vertex 2.9079 -6.36742 0
    endloop
  endfacet
  facet normal 0 0 -1
    outer loop
      vertex 10 -10 0
      vertex -0.996203 -6.92875 0
      vertex 0.996203 -6.92875 0
    endloop
  endfacet
  facet normal -0 0 -1
    outer loop
      vertex -6.71645 -1.97213 0
      vertex -10 -10 0
      vertex -7 0 0
    endloop
  endfacet
  facet normal -0 0 -1
    outer loop
      vertex -5.88877 -3.78448 0
      vertex -10 -10 0
      vertex -6.71645 -1.97213 0
    endloop
  endfacet
  facet normal -0 0 -1
    outer loop
      vertex -4.58402 -5.29025 0
      vertex -10 -10 0
      vertex -5.88877 -3.78448 0
    endloop
  endfacet
  facet normal -0 0 -1
    outer loop
      vertex -2.9079 -6.36742 0
      vertex -10 -10 0
      vertex -4.58402 -5.29025 0
    endloop
  endfacet
  facet normal -0 0 -1
    outer loop
      vertex -0.996203 -6.92875 0
      vertex -10 -10 0
      vertex -2.9079 -6.36742 0
    endloop
  endfacet
  facet normal 0 0 -1
    outer loop
      vertex -10 -10 0
      vertex -0.996203 -6.92875 0
      vertex 10 -10 0
    endloop
  endfacet
  facet normal 0 0 -1
    outer loop
      vertex 6.71645 1.97213 0
      vertex 10 10 0
      vertex 7 0 0
    endloop
  endfacet
  facet normal 0 0 -1
    outer loop
      vertex 5.88877 3.78448 0
      vertex 10 10 0
      vertex 6.71645 1.97213 0
    endloop
  endfacet
  facet normal 0 0 -1
    outer loop
      vertex 4.58402 5.29025 0
      vertex 10 10 0
      vertex 5.88877 3.78448 0
    endloop
  endfacet
  facet normal 0 0 -1
    outer loop
      vertex 2.9079 6.36742 0
      vertex 10 10 0
      vertex 4.58402 5.29025 0
    endloop
  endfacet
  facet normal 0 0 -1
    outer loop
      vertex 0.996203 6.92875 0
      vertex 10 10 0
      vertex 2.9079 6.36742 0
    endloop
  endfacet
  facet normal 0 0 -1
    outer loop
      vertex -0.996203 6.92875 0
      vertex 10 10 0
      vertex 0.996203 6.92875 0
    endloop
  endfacet
  facet normal 0 0 -1
    outer loop
      vertex -10 10 0
      vertex -7 0 0
      vertex -10 -10 0
    endloop
  endfacet
  facet normal 0 0 -1
    outer loop
      vertex -0.996203 6.92875 0
      vertex -10 10 0
      vertex 10 10 0
    endloop
  endfacet
  facet normal 0 0 -1
    outer loop
      vertex -2.9079 6.36742 0
      vertex -10 10 0
      vertex -0.996203 6.92875 0
    endloop
  endfacet
  facet normal 0 0 -1
    outer loop
      vertex -4.58402 5.29025 0
      vertex -10 10 0
      vertex -2.9079 6.36742 0
    endloop
  endfacet
  facet normal 0 0 -1
    outer loop
      vertex -5.88877 3.78448 0
      vertex -10 10 0
      vertex -4.58402 5.29025 0
    endloop
  endfacet
  facet normal 0 0 -1
    outer loop
      vertex -6.71645 1.97213 0
      vertex -10 10 0
      vertex -5.88877 3.78448 0
    endloop
  endfacet
  facet normal 0 0 -1
    outer loop
      vertex -7 0 0
      vertex -10 10 0
      vertex -6.71645 1.97213 0
    endloop
  endfacet
  facet normal 0 -1 0
    outer loop
      vertex -10 -10 20
      vertex -0.996203 -10 16.9287
      vertex 10 -10 20
    endloop
  endfacet
  facet normal 0 -1 0
    outer loop
      vertex -10 -10 20
      vertex -2.9079 -10 16.3674
      vertex -0.996203 -10 16.9287
    endloop
  endfacet
  facet normal 0 -1 0
    outer loop
      vertex -10 -10 20
      vertex -4.58402 -10 15.2902
      vertex -2.9079 -10 16.3674
    endloop
  endfacet
  facet normal 0 -1 0
    outer loop
      vertex -10 -10 20
      vertex -5.88877 -10 13.7845
      vertex -4.58402 -10 15.2902
    endloop
  endfacet
  facet normal 0 -1 0
    outer loop
      vertex -10 -10 20
      vertex -6.71645 -10 11.9721
      vertex -5.88877 -10 13.7845
    endloop
  endfacet
  facet normal 0 -1 0
    outer loop
      vertex -10 -10 20
      vertex -7 -10 10
      vertex -6.71645 -10 11.9721
    endloop
  endfacet
  facet normal 0 -1 0
    outer loop
      vertex -10 -10 0
      vertex -7 -10 10
      vertex -10 -10 20
    endloop
  endfacet
  facet normal 0 -1 -0
    outer loop
      vertex -0.996203 -10 3.07125
      vertex -10 -10 0
      vertex 0.996203 -10 3.07125
    endloop
  endfacet
  facet normal 0 -1 -0
    outer loop
      vertex -2.9079 -10 3.63258
      vertex -10 -10 0
      vertex -0.996203 -10 3.07125
    endloop
  endfacet
  facet normal 0 -1 -0
    outer loop
      vertex -4.58402 -10 4.70975
      vertex -10 -10 0
      vertex -2.9079 -10 3.63258
    endloop
  endfacet
  facet normal 0 -1 -0
    outer loop
      vertex -5.88877 -10 6.21551
      vertex -10 -10 0
      vertex -4.58402 -10 4.70975
    endloop
  endfacet
  facet normal 0 -1 -0
    outer loop
      vertex -6.71645 -10 8.02787
      vertex -10 -10 0
      vertex -5.88877 -10 6.21551
    endloop
  endfacet
  facet normal 0 -1 -0
    outer loop
      vertex -7 -10 10
      vertex -10 -10 0
      vertex -6.71645 -10 8.02787
    endloop
  endfacet
  facet normal 0 -1 0
    outer loop
      vertex 0.996203 -10 16.9287
      vertex 10 -10 20
      vertex -0.996203 -10 16.9287
    endloop
  endfacet
  facet normal 0 -1 0
    outer loop
      vertex 2.9079 -10 16.3674
      vertex 10 -10 20
      vertex 0.996203 -10 16.9287
    endloop
  endfacet
  facet normal 0 -1 0
    outer loop
      vertex 4.58402 -10 15.2902
      vertex 10 -10 20
      vertex 2.9079 -10 16.3674
    endloop
  endfacet
  facet normal 0 -1 0
    outer loop
      vertex 5.88877 -10 13.7845
      vertex 10 -10 20
      vertex 4.58402 -10 15.2902
    endloop
  endfacet
  facet normal 0 -1 0
    outer loop
      vertex 6.71645 -10 11.9721
      vertex 10 -10 20
      vertex 5.88877 -10 13.7845
    endloop
  endfacet
  facet normal 0 -1 0
    outer loop
      vertex 7 -10 10
      vertex 10 -10 20
      vertex 6.71645 -10 11.9721
    endloop
  endfacet
  facet normal 0 -1 0
    outer loop
      vertex 10 -10 0
      vertex 7 -10 10
      vertex 6.71645 -10 8.02787
    endloop
  endfacet
  facet normal 0 -1 0
    outer loop
      vertex 7 -10 10
      vertex 10 -10 0
      vertex 10 -10 20
    endloop
  endfacet
  facet normal 0 -1 0
    outer loop
      vertex 5.88877 -10 6.21551
      vertex 10 -10 0
      vertex 6.71645 -10 8.02787
    endloop
  endfacet
  facet normal 0 -1 0
    outer loop
      vertex 4.58402 -10 4.70975
      vertex 10 -10 0
      vertex 5.88877 -10 6.21551
    endloop
  endfacet
  facet normal 0 -1 0
    outer loop
      vertex 2.9079 -10 3.63258
      vertex 10 -10 0
      vertex 4.58402 -10 4.70975
    endloop
  endfacet
  facet normal 0 -1 0
    outer loop
      vertex 0.996203 -10 3.07125
      vertex 10 -10 0
      vertex 2.9079 -10 3.63258
    endloop
  endfacet
  facet normal 0 -1 0
    outer loop
      vertex 10 -10 0
      vertex 0.996203 -10 3.07125
      vertex -10 -10 0
    endloop
  endfacet
  facet normal -0.989821 -0.142315 -0
    outer loop
      vertex 7 0 20
      vertex 6.71645 1.97213 11.9721
      vertex 7 0 10
    endloop
  endfacet
  facet normal -0.989821 -0.142315 0
    outer loop
      vertex 6.71645 1.97213 11.9721
      vertex 7 0 20
      vertex 6.71645 1.97213 20
    endloop
  endfacet
  facet normal -0.989821 -0.142315 0
    outer loop
      vertex 7 0 0
      vertex 6.71645 1.97213 8.02787
      vertex 6.71645 1.97213 0
    endloop
  endfacet
  facet normal -0.989821 -0.142315 0
    outer loop
      vertex 6.71645 1.97213 8.02787
      vertex 7 0 0
      vertex 7 0 10
    endloop
  endfacet
  facet normal 0.989821 -0.142315 0
    outer loop
      vertex -7 0 20
      vertex -6.71645 1.97213 11.9721
      vertex -6.71645 1.97213 20
    endloop
  endfacet
  facet normal 0.989821 -0.142315 0
    outer loop
      vertex -6.71645 1.97213 11.9721
      vertex -7 0 20
      vertex -7 0 10
    endloop
  endfacet
  facet normal 0.989821 -0.142315 0
    outer loop
      vertex -7 0 0
      vertex -6.71645 1.97213 8.02787
      vertex -7 0 10
    endloop
  endfacet
  facet normal 0.989821 -0.142315 0
    outer loop
      vertex -6.71645 1.97213 8.02787
      vertex -7 0 0
      vertex -6.71645 1.97213 0
    endloop
  endfacet
  facet normal 0 -1 0
    outer loop
      vertex -0.996203 6.92875 16.9287
      vertex 0.996203 6.92875 20
      vertex -0.996203 6.92875 20
    endloop
  endfacet
  facet normal 0 -1 -0
    outer loop
      vertex 0.996203 6.92875 20
      vertex -0.996203 6.92875 16.9287
      vertex 0.996203 6.92875 16.9287
    endloop
  endfacet
  facet normal 0 -1 0
    outer loop
      vertex -0.996203 6.92875 0
      vertex 0.996203 6.92875 3.07125
      vertex -0.996203 6.92875 3.07125
    endloop
  endfacet
  facet normal 0 -1 -0
    outer loop
      vertex 0.996203 6.92875 3.07125
      vertex -0.996203 6.92875 0
      vertex 0.996203 6.92875 0
    endloop
  endfacet
  facet normal 0 1 -0
    outer loop
      vertex 0.996203 -6.92875 16.9287
      vertex -0.996203 -6.92875 20
      vertex 0.996203 -6.92875 20
    endloop
  endfacet
  facet normal 0 1 0
    outer loop
      vertex -0.996203 -6.92875 20
      vertex 0.996203 -6.92875 16.9287
      vertex -0.996203 -6.92875 16.9287
    endloop
  endfacet
  facet normal 0 1 -0
    outer loop
      vertex 0.996203 -6.92875 0
      vertex -0.996203 -6.92875 3.07125
      vertex 0.996203 -6.92875 3.07125
    endloop
  endfacet
  facet normal 0 1 0
    outer loop
      vertex -0.996203 -6.92875 3.07125
      vertex 0.996203 -6.92875 0
      vertex -0.996203 -6.92875 0
    endloop
  endfacet
  facet normal -0.75575 -0.654861 -0
    outer loop
      vertex 5.88877 3.78448 20
      vertex 4.58402 5.29025 15.2902
      vertex 5.88877 3.78448 13.7845
    endloop
  endfacet
  facet normal -0.75575 -0.654861 0
    outer loop
      vertex 4.58402 5.29025 15.2902
      vertex 5.88877 3.78448 20
      vertex 4.58402 5.29025 20
    endloop
  endfacet
  facet normal -0.75575 -0.654861 0
    outer loop
      vertex 5.88877 3.78448 0
      vertex 4.58402 5.29025 4.70975
      vertex 4.58402 5.29025 0
    endloop
  endfacet
  facet normal -0.75575 -0.654861 0
    outer loop
      vertex 4.58402 5.29025 4.70975
      vertex 5.88877 3.78448 0
      vertex 5.88877 3.78448 6.21551
    endloop
  endfacet
  facet normal -0.909632 -0.415415 -0
    outer loop
      vertex 6.71645 1.97213 20
      vertex 5.88877 3.78448 13.7845
      vertex 6.71645 1.97213 11.9721
    endloop
  endfacet
  facet normal -0.909632 -0.415415 0
    outer loop
      vertex 5.88877 3.78448 13.7845
      vertex 6.71645 1.97213 20
      vertex 5.88877 3.78448 20
    endloop
  endfacet
  facet normal -0.909632 -0.415415 0
    outer loop
      vertex 6.71645 1.97213 0
      vertex 5.88877 3.78448 6.21551
      vertex 5.88877 3.78448 0
    endloop
  endfacet
  facet normal -0.909632 -0.415415 0
    outer loop
      vertex 5.88877 3.78448 6.21551
      vertex 6.71645 1.97213 0
      vertex 6.71645 1.97213 8.02787
    endloop
  endfacet
  facet normal 0.540641 -0.841254 0
    outer loop
      vertex -4.58402 5.29025 20
      vertex -2.9079 6.36742 16.3674
      vertex -2.9079 6.36742 20
    endloop
  endfacet
  facet normal 0.540641 -0.841254 0
    outer loop
      vertex -2.9079 6.36742 16.3674
      vertex -4.58402 5.29025 20
      vertex -4.58402 5.29025 15.2902
    endloop
  endfacet
  facet normal 0.540641 -0.841254 0
    outer loop
      vertex -4.58402 5.29025 0
      vertex -2.9079 6.36742 3.63258
      vertex -4.58402 5.29025 4.70975
    endloop
  endfacet
  facet normal 0.540641 -0.841254 0
    outer loop
      vertex -2.9079 6.36742 3.63258
      vertex -4.58402 5.29025 0
      vertex -2.9079 6.36742 0
    endloop
  endfacet
  facet normal 0.281733 -0.959493 0
    outer loop
      vertex -2.9079 6.36742 20
      vertex -0.996203 6.92875 16.9287
      vertex -0.996203 6.92875 20
    endloop
  endfacet
  facet normal 0.281733 -0.959493 0
    outer loop
      vertex -0.996203 6.92875 16.9287
      vertex -2.9079 6.36742 20
      vertex -2.9079 6.36742 16.3674
    endloop
  endfacet
  facet normal 0.281733 -0.959493 0
    outer loop
      vertex -2.9079 6.36742 0
      vertex -0.996203 6.92875 3.07125
      vertex -2.9079 6.36742 3.63258
    endloop
  endfacet
  facet normal 0.281733 -0.959493 0
    outer loop
      vertex -0.996203 6.92875 3.07125
      vertex -2.9079 6.36742 0
      vertex -0.996203 6.92875 0
    endloop
  endfacet
  facet normal -0.281733 -0.959493 0
    outer loop
      vertex 0.996203 6.92875 16.9287
      vertex 2.9079 6.36742 20
      vertex 0.996203 6.92875 20
    endloop
  endfacet
  facet normal -0.281733 -0.959493 -0
    outer loop
      vertex 2.9079 6.36742 20
      vertex 0.996203 6.92875 16.9287
      vertex 2.9079 6.36742 16.3674
    endloop
  endfacet
  facet normal -0.281733 -0.959493 0
    outer loop
      vertex 2.9079 6.36742 0
      vertex 0.996203 6.92875 3.07125
      vertex 0.996203 6.92875 0
    endloop
  endfacet
  facet normal -0.281733 -0.959493 0
    outer loop
      vertex 0.996203 6.92875 3.07125
      vertex 2.9079 6.36742 0
      vertex 2.9079 6.36742 3.63258
    endloop
  endfacet
  facet normal -0.540641 -0.841254 0
    outer loop
      vertex 2.9079 6.36742 16.3674
      vertex 4.58402 5.29025 20
      vertex 2.9079 6.36742 20
    endloop
  endfacet
  facet normal -0.540641 -0.841254 -0
    outer loop
      vertex 4.58402 5.29025 20
      vertex 2.9079 6.36742 16.3674
      vertex 4.58402 5.29025 15.2902
    endloop
  endfacet
  facet normal -0.540641 -0.841254 0
    outer loop
      vertex 4.58402 5.29025 0
      vertex 2.9079 6.36742 3.63258
      vertex 2.9079 6.36742 0
    endloop
  endfacet
  facet normal -0.540641 -0.841254 0
    outer loop
      vertex 2.9079 6.36742 3.63258
      vertex 4.58402 5.29025 0
      vertex 4.58402 5.29025 4.70975
    endloop
  endfacet
  facet normal 0.75575 -0.654861 0
    outer loop
      vertex -5.88877 3.78448 20
      vertex -4.58402 5.29025 15.2902
      vertex -4.58402 5.29025 20
    endloop
  endfacet
  facet normal 0.75575 -0.654861 0
    outer loop
      vertex -4.58402 5.29025 15.2902
      vertex -5.88877 3.78448 20
      vertex -5.88877 3.78448 13.7845
    endloop
  endfacet
  facet normal 0.75575 -0.654861 0
    outer loop
      vertex -5.88877 3.78448 0
      vertex -4.58402 5.29025 4.70975
      vertex -5.88877 3.78448 6.21551
    endloop
  endfacet
  facet normal 0.75575 -0.654861 0
    outer loop
      vertex -4.58402 5.29025 4.70975
      vertex -5.88877 3.78448 0
      vertex -4.58402 5.29025 0
    endloop
  endfacet
  facet normal 0.909632 -0.415415 0
    outer loop
      vertex -6.71645 1.97213 20
      vertex -5.88877 3.78448 13.7845
      vertex -5.88877 3.78448 20
    endloop
  endfacet
  facet normal 0.909632 -0.415415 0
    outer loop
      vertex -5.88877 3.78448 13.7845
      vertex -6.71645 1.97213 20
      vertex -6.71645 1.97213 11.9721
    endloop
  endfacet
  facet normal 0.909632 -0.415415 0
    outer loop
      vertex -6.71645 1.97213 0
      vertex -5.88877 3.78448 6.21551
      vertex -6.71645 1.97213 8.02787
    endloop
  endfacet
  facet normal 0.909632 -0.415415 0
    outer loop
      vertex -5.88877 3.78448 6.21551
      vertex -6.71645 1.97213 0
      vertex -5.88877 3.78448 0
    endloop
  endfacet
  facet normal 0.989821 0.142315 -0
    outer loop
      vertex -6.71645 -1.97213 11.9721
      vertex -7 0 20
      vertex -6.71645 -1.97213 20
    endloop
  endfacet
  facet normal 0.989821 0.142315 0
    outer loop
      vertex -7 0 20
      vertex -6.71645 -1.97213 11.9721
      vertex -7 0 10
    endloop
  endfacet
  facet normal 0.989821 0.142315 0
    outer loop
      vertex -6.71645 -1.97213 8.02787
      vertex -7 0 0
      vertex -7 0 10
    endloop
  endfacet
  facet normal 0.989821 0.142315 0
    outer loop
      vertex -7 0 0
      vertex -6.71645 -1.97213 8.02787
      vertex -6.71645 -1.97213 0
    endloop
  endfacet
  facet normal -0.75575 0.654861 0
    outer loop
      vertex 4.58402 -5.29025 15.2902
      vertex 5.88877 -3.78448 20
      vertex 5.88877 -3.78448 13.7845
    endloop
  endfacet
  facet normal -0.75575 0.654861 0
    outer loop
      vertex 5.88877 -3.78448 20
      vertex 4.58402 -5.29025 15.2902
      vertex 4.58402 -5.29025 20
    endloop
  endfacet
  facet normal -0.75575 0.654861 0
    outer loop
      vertex 4.58402 -5.29025 4.70975
      vertex 5.88877 -3.78448 0
      vertex 4.58402 -5.29025 0
    endloop
  endfacet
  facet normal -0.75575 0.654861 0
    outer loop
      vertex 5.88877 -3.78448 0
      vertex 4.58402 -5.29025 4.70975
      vertex 5.88877 -3.78448 6.21551
    endloop
  endfacet
  facet normal -0.909632 0.415415 0
    outer loop
      vertex 5.88877 -3.78448 13.7845
      vertex 6.71645 -1.97213 20
      vertex 6.71645 -1.97213 11.9721
    endloop
  endfacet
  facet normal -0.909632 0.415415 0
    outer loop
      vertex 6.71645 -1.97213 20
      vertex 5.88877 -3.78448 13.7845
      vertex 5.88877 -3.78448 20
    endloop
  endfacet
  facet normal -0.909632 0.415415 0
    outer loop
      vertex 5.88877 -3.78448 6.21551
      vertex 6.71645 -1.97213 0
      vertex 5.88877 -3.78448 0
    endloop
  endfacet
  facet normal -0.909632 0.415415 0
    outer loop
      vertex 6.71645 -1.97213 0
      vertex 5.88877 -3.78448 6.21551
      vertex 6.71645 -1.97213 8.02787
    endloop
  endfacet
  facet normal 0.540641 0.841254 -0
    outer loop
      vertex -2.9079 -6.36742 16.3674
      vertex -4.58402 -5.29025 20
      vertex -2.9079 -6.36742 20
    endloop
  endfacet
  facet normal 0.540641 0.841254 0
    outer loop
      vertex -4.58402 -5.29025 20
      vertex -2.9079 -6.36742 16.3674
      vertex -4.58402 -5.29025 15.2902
    endloop
  endfacet
  facet normal 0.540641 0.841254 0
    outer loop
      vertex -4.58402 -5.29025 0
      vertex -2.9079 -6.36742 3.63258
      vertex -2.9079 -6.36742 0
    endloop
  endfacet
  facet normal 0.540641 0.841254 0
    outer loop
      vertex -2.9079 -6.36742 3.63258
      vertex -4.58402 -5.29025 0
      vertex -4.58402 -5.29025 4.70975
    endloop
  endfacet
  facet normal 0.909632 0.415415 -0
    outer loop
      vertex -5.88877 -3.78448 13.7845
      vertex -6.71645 -1.97213 20
      vertex -5.88877 -3.78448 20
    endloop
  endfacet
  facet normal 0.909632 0.415415 0
    outer loop
      vertex -6.71645 -1.97213 20
      vertex -5.88877 -3.78448 13.7845
      vertex -6.71645 -1.97213 11.9721
    endloop
  endfacet
  facet normal 0.909632 0.415415 0
    outer loop
      vertex -5.88877 -3.78448 6.21551
      vertex -6.71645 -1.97213 0
      vertex -6.71645 -1.97213 8.02787
    endloop
  endfacet
  facet normal 0.909632 0.415415 0
    outer loop
      vertex -6.71645 -1.97213 0
      vertex -5.88877 -3.78448 6.21551
      vertex -5.88877 -3.78448 0
    endloop
  endfacet
  facet normal 0.75575 0.654861 -0
    outer loop
      vertex -4.58402 -5.29025 15.2902
      vertex -5.88877 -3.78448 20
      vertex -4.58402 -5.29025 20
    endloop
  endfacet
  facet normal 0.75575 0.654861 0
    outer loop
      vertex -5.88877 -3.78448 20
      vertex -4.58402 -5.29025 15.2902
      vertex -5.88877 -3.78448 13.7845
    endloop
  endfacet
  facet normal 0.75575 0.654861 0
    outer loop
      vertex -4.58402 -5.29025 4.70975
      vertex -5.88877 -3.78448 0
      vertex -5.88877 -3.78448 6.21551
    endloop
  endfacet
  facet normal 0.75575 0.654861 0
    outer loop
      vertex -5.88877 -3.78448 0
      vertex -4.58402 -5.29025 4.70975
      vertex -4.58402 -5.29025 0
    endloop
  endfacet
  facet normal -0.281733 0.959493 0
    outer loop
      vertex 2.9079 -6.36742 20
      vertex 0.996203 -6.92875 16.9287
      vertex 0.996203 -6.92875 20
    endloop
  endfacet
  facet normal -0.281733 0.959493 0
    outer loop
      vertex 0.996203 -6.92875 16.9287
      vertex 2.9079 -6.36742 20
      vertex 2.9079 -6.36742 16.3674
    endloop
  endfacet
  facet normal -0.281733 0.959493 0
    outer loop
      vertex 2.9079 -6.36742 0
      vertex 0.996203 -6.92875 3.07125
      vertex 2.9079 -6.36742 3.63258
    endloop
  endfacet
  facet normal -0.281733 0.959493 0
    outer loop
      vertex 0.996203 -6.92875 3.07125
      vertex 2.9079 -6.36742 0
      vertex 0.996203 -6.92875 0
    endloop
  endfacet
  facet normal -0.989821 0.142315 0
    outer loop
      vertex 6.71645 -1.97213 11.9721
      vertex 7 0 20
      vertex 7 0 10
    endloop
  endfacet
  facet normal -0.989821 0.142315 0
    outer loop
      vertex 7 0 20
      vertex 6.71645 -1.97213 11.9721
      vertex 6.71645 -1.97213 20
    endloop
  endfacet
  facet normal -0.989821 0.142315 0
    outer loop
      vertex 6.71645 -1.97213 8.02787
      vertex 7 0 0
      vertex 6.71645 -1.97213 0
    endloop
  endfacet
  facet normal -0.989821 0.142315 0
    outer loop
      vertex 7 0 0
      vertex 6.71645 -1.97213 8.02787
      vertex 7 0 10
    endloop
  endfacet
  facet normal 0.281733 0.959493 -0
    outer loop
      vertex -0.996203 -6.92875 16.9287
      vertex -2.9079 -6.36742 20
      vertex -0.996203 -6.92875 20
    endloop
  endfacet
  facet normal 0.281733 0.959493 0
    outer loop
      vertex -2.9079 -6.36742 20
      vertex -0.996203 -6.92875 16.9287
      vertex -2.9079 -6.36742 16.3674
    endloop
  endfacet
  facet normal 0.281733 0.959493 0
    outer loop
      vertex -2.9079 -6.36742 0
      vertex -0.996203 -6.92875 3.07125
      vertex -0.996203 -6.92875 0
    endloop
  endfacet
  facet normal 0.281733 0.959493 0
    outer loop
      vertex -0.996203 -6.92875 3.07125
      vertex -2.9079 -6.36742 0
      vertex -2.9079 -6.36742 3.63258
    endloop
  endfacet
  facet normal -0.540641 0.841254 0
    outer loop
      vertex 4.58402 -5.29025 20
      vertex 2.9079 -6.36742 16.3674
      vertex 2.9079 -6.36742 20
    endloop
  endfacet
  facet normal -0.540641 0.841254 0
    outer loop
      vertex 2.9079 -6.36742 16.3674
      vertex 4.58402 -5.29025 20
      vertex 4.58402 -5.29025 15.2902
    endloop
  endfacet
  facet normal -0.540641 0.841254 0
    outer loop
      vertex 4.58402 -5.29025 0
      vertex 2.9079 -6.36742 3.63258
      vertex 4.58402 -5.29025 4.70975
    endloop
  endfacet
  facet normal -0.540641 0.841254 0
    outer loop
      vertex 2.9079 -6.36742 3.63258
      vertex 4.58402 -5.29025 0
      vertex 2.9079 -6.36742 0
    endloop
  endfacet
  facet normal -0.989821 0 -0.142315
    outer loop
      vertex 7 10 10
      vertex 6.71645 1.97213 11.9721
      vertex 6.71645 10 11.9721
    endloop
  endfacet
  facet normal -0.989821 0 -0.142315
    outer loop
      vertex 6.71645 1.97213 11.9721
      vertex 7 10 10
      vertex 7 0 10
    endloop
  endfacet
  facet normal -0.989821 0 -0.142315
    outer loop
      vertex 7 -10 10
      vertex 6.71645 -1.97213 11.9721
      vertex 7 0 10
    endloop
  endfacet
  facet normal -0.989821 -0 -0.142315
    outer loop
      vertex 6.71645 -1.97213 11.9721
      vertex 7 -10 10
      vertex 6.71645 -10 11.9721
    endloop
  endfacet
  facet normal -0.909632 0 -0.415415
    outer loop
      vertex 6.71645 10 11.9721
      vertex 5.88877 3.78448 13.7845
      vertex 5.88877 10 13.7845
    endloop
  endfacet
  facet normal -0.909632 0 -0.415415
    outer loop
      vertex 5.88877 3.78448 13.7845
      vertex 6.71645 10 11.9721
      vertex 6.71645 1.97213 11.9721
    endloop
  endfacet
  facet normal -0.909632 0 -0.415415
    outer loop
      vertex 6.71645 -10 11.9721
      vertex 5.88877 -3.78448 13.7845
      vertex 6.71645 -1.97213 11.9721
    endloop
  endfacet
  facet normal -0.909632 -0 -0.415415
    outer loop
      vertex 5.88877 -3.78448 13.7845
      vertex 6.71645 -10 11.9721
      vertex 5.88877 -10 13.7845
    endloop
  endfacet
  facet normal 0 0 -1
    outer loop
      vertex -0.996203 6.92875 16.9287
      vertex 0.996203 10 16.9287
      vertex 0.996203 6.92875 16.9287
    endloop
  endfacet
  facet normal -0 0 -1
    outer loop
      vertex 0.996203 10 16.9287
      vertex -0.996203 6.92875 16.9287
      vertex -0.996203 10 16.9287
    endloop
  endfacet
  facet normal 0 0 -1
    outer loop
      vertex -0.996203 -10 16.9287
      vertex 0.996203 -6.92875 16.9287
      vertex 0.996203 -10 16.9287
    endloop
  endfacet
  facet normal -0 0 -1
    outer loop
      vertex 0.996203 -6.92875 16.9287
      vertex -0.996203 -10 16.9287
      vertex -0.996203 -6.92875 16.9287
    endloop
  endfacet
  facet normal -0.75575 0 -0.654861
    outer loop
      vertex 5.88877 10 13.7845
      vertex 4.58402 5.29025 15.2902
      vertex 4.58402 10 15.2902
    endloop
  endfacet
  facet normal -0.75575 0 -0.654861
    outer loop
      vertex 4.58402 5.29025 15.2902
      vertex 5.88877 10 13.7845
      vertex 5.88877 3.78448 13.7845
    endloop
  endfacet
  facet normal -0.75575 0 -0.654861
    outer loop
      vertex 5.88877 -10 13.7845
      vertex 4.58402 -5.29025 15.2902
      vertex 5.88877 -3.78448 13.7845
    endloop
  endfacet
  facet normal -0.75575 -0 -0.654861
    outer loop
      vertex 4.58402 -5.29025 15.2902
      vertex 5.88877 -10 13.7845
      vertex 4.58402 -10 15.2902
    endloop
  endfacet
  facet normal 0.75575 0 -0.654861
    outer loop
      vertex -4.58402 5.29025 15.2902
      vertex -5.88877 10 13.7845
      vertex -4.58402 10 15.2902
    endloop
  endfacet
  facet normal 0.75575 0 -0.654861
    outer loop
      vertex -5.88877 10 13.7845
      vertex -4.58402 5.29025 15.2902
      vertex -5.88877 3.78448 13.7845
    endloop
  endfacet
  facet normal 0.75575 0 -0.654861
    outer loop
      vertex -5.88877 -10 13.7845
      vertex -4.58402 -5.29025 15.2902
      vertex -4.58402 -10 15.2902
    endloop
  endfacet
  facet normal 0.75575 0 -0.654861
    outer loop
      vertex -4.58402 -5.29025 15.2902
      vertex -5.88877 -10 13.7845
      vertex -5.88877 -3.78448 13.7845
    endloop
  endfacet
  facet normal 0.540641 0 -0.841253
    outer loop
      vertex -4.58402 10 15.2902
      vertex -2.9079 6.36742 16.3674
      vertex -4.58402 5.29025 15.2902
    endloop
  endfacet
  facet normal 0.540641 0 -0.841253
    outer loop
      vertex -2.9079 6.36742 16.3674
      vertex -4.58402 10 15.2902
      vertex -2.9079 10 16.3674
    endloop
  endfacet
  facet normal 0.540641 0 -0.841253
    outer loop
      vertex -4.58402 -10 15.2902
      vertex -2.9079 -6.36742 16.3674
      vertex -2.9079 -10 16.3674
    endloop
  endfacet
  facet normal 0.540641 0 -0.841253
    outer loop
      vertex -2.9079 -6.36742 16.3674
      vertex -4.58402 -10 15.2902
      vertex -4.58402 -5.29025 15.2902
    endloop
  endfacet
  facet normal -0.909632 0 0.415415
    outer loop
      vertex 6.71645 -10 8.02787
      vertex 5.88877 -3.78448 6.21551
      vertex 5.88877 -10 6.21551
    endloop
  endfacet
  facet normal -0.909632 0 0.415415
    outer loop
      vertex 5.88877 -3.78448 6.21551
      vertex 6.71645 -10 8.02787
      vertex 6.71645 -1.97213 8.02787
    endloop
  endfacet
  facet normal -0.909632 0 0.415415
    outer loop
      vertex 5.88877 3.78448 6.21551
      vertex 6.71645 10 8.02787
      vertex 5.88877 10 6.21551
    endloop
  endfacet
  facet normal -0.909632 0 0.415415
    outer loop
      vertex 6.71645 10 8.02787
      vertex 5.88877 3.78448 6.21551
      vertex 6.71645 1.97213 8.02787
    endloop
  endfacet
  facet normal 0.909632 0 0.415415
    outer loop
      vertex -6.71645 10 8.02787
      vertex -5.88877 3.78448 6.21551
      vertex -5.88877 10 6.21551
    endloop
  endfacet
  facet normal 0.909632 0 0.415415
    outer loop
      vertex -5.88877 3.78448 6.21551
      vertex -6.71645 10 8.02787
      vertex -6.71645 1.97213 8.02787
    endloop
  endfacet
  facet normal 0.909632 -0 0.415415
    outer loop
      vertex -6.71645 -10 8.02787
      vertex -5.88877 -3.78448 6.21551
      vertex -6.71645 -1.97213 8.02787
    endloop
  endfacet
  facet normal 0.909632 0 0.415415
    outer loop
      vertex -5.88877 -3.78448 6.21551
      vertex -6.71645 -10 8.02787
      vertex -5.88877 -10 6.21551
    endloop
  endfacet
  facet normal -0.281732 0 -0.959493
    outer loop
      vertex 0.996203 6.92875 16.9287
      vertex 2.9079 10 16.3674
      vertex 2.9079 6.36742 16.3674
    endloop
  endfacet
  facet normal -0.281732 0 -0.959493
    outer loop
      vertex 2.9079 10 16.3674
      vertex 0.996203 6.92875 16.9287
      vertex 0.996203 10 16.9287
    endloop
  endfacet
  facet normal -0.281732 -0 -0.959493
    outer loop
      vertex 0.996203 -6.92875 16.9287
      vertex 2.9079 -10 16.3674
      vertex 0.996203 -10 16.9287
    endloop
  endfacet
  facet normal -0.281732 0 -0.959493
    outer loop
      vertex 2.9079 -10 16.3674
      vertex 0.996203 -6.92875 16.9287
      vertex 2.9079 -6.36742 16.3674
    endloop
  endfacet
  facet normal -0.540641 -0 -0.841253
    outer loop
      vertex 2.9079 -6.36742 16.3674
      vertex 4.58402 -10 15.2902
      vertex 2.9079 -10 16.3674
    endloop
  endfacet
  facet normal -0.540641 0 -0.841253
    outer loop
      vertex 4.58402 -10 15.2902
      vertex 2.9079 -6.36742 16.3674
      vertex 4.58402 -5.29025 15.2902
    endloop
  endfacet
  facet normal -0.540641 0 -0.841253
    outer loop
      vertex 2.9079 6.36742 16.3674
      vertex 4.58402 10 15.2902
      vertex 4.58402 5.29025 15.2902
    endloop
  endfacet
  facet normal -0.540641 0 -0.841253
    outer loop
      vertex 4.58402 10 15.2902
      vertex 2.9079 6.36742 16.3674
      vertex 2.9079 10 16.3674
    endloop
  endfacet
  facet normal 0.909632 0 -0.415415
    outer loop
      vertex -5.88877 3.78448 13.7845
      vertex -6.71645 10 11.9721
      vertex -5.88877 10 13.7845
    endloop
  endfacet
  facet normal 0.909632 0 -0.415415
    outer loop
      vertex -6.71645 10 11.9721
      vertex -5.88877 3.78448 13.7845
      vertex -6.71645 1.97213 11.9721
    endloop
  endfacet
  facet normal 0.909632 0 -0.415415
    outer loop
      vertex -6.71645 -10 11.9721
      vertex -5.88877 -3.78448 13.7845
      vertex -5.88877 -10 13.7845
    endloop
  endfacet
  facet normal 0.909632 0 -0.415415
    outer loop
      vertex -5.88877 -3.78448 13.7845
      vertex -6.71645 -10 11.9721
      vertex -6.71645 -1.97213 11.9721
    endloop
  endfacet
  facet normal 0.281732 0 -0.959493
    outer loop
      vertex -2.9079 10 16.3674
      vertex -0.996203 6.92875 16.9287
      vertex -2.9079 6.36742 16.3674
    endloop
  endfacet
  facet normal 0.281732 0 -0.959493
    outer loop
      vertex -0.996203 6.92875 16.9287
      vertex -2.9079 10 16.3674
      vertex -0.996203 10 16.9287
    endloop
  endfacet
  facet normal 0.281732 0 -0.959493
    outer loop
      vertex -2.9079 -10 16.3674
      vertex -0.996203 -6.92875 16.9287
      vertex -0.996203 -10 16.9287
    endloop
  endfacet
  facet normal 0.281732 0 -0.959493
    outer loop
      vertex -0.996203 -6.92875 16.9287
      vertex -2.9079 -10 16.3674
      vertex -2.9079 -6.36742 16.3674
    endloop
  endfacet
  facet normal -0.989821 0 0.142315
    outer loop
      vertex 6.71645 1.97213 8.02787
      vertex 7 10 10
      vertex 6.71645 10 8.02787
    endloop
  endfacet
  facet normal -0.989821 0 0.142315
    outer loop
      vertex 7 10 10
      vertex 6.71645 1.97213 8.02787
      vertex 7 0 10
    endloop
  endfacet
  facet normal -0.989821 0 0.142315
    outer loop
      vertex 7 -10 10
      vertex 6.71645 -1.97213 8.02787
      vertex 6.71645 -10 8.02787
    endloop
  endfacet
  facet normal -0.989821 0 0.142315
    outer loop
      vertex 6.71645 -1.97213 8.02787
      vertex 7 -10 10
      vertex 7 0 10
    endloop
  endfacet
  facet normal -0.281733 0 0.959493
    outer loop
      vertex 0.996203 6.92875 3.07125
      vertex 2.9079 10 3.63258
      vertex 0.996203 10 3.07125
    endloop
  endfacet
  facet normal -0.281733 0 0.959493
    outer loop
      vertex 2.9079 10 3.63258
      vertex 0.996203 6.92875 3.07125
      vertex 2.9079 6.36742 3.63258
    endloop
  endfacet
  facet normal -0.281733 0 0.959493
    outer loop
      vertex 0.996203 -6.92875 3.07125
      vertex 2.9079 -10 3.63258
      vertex 2.9079 -6.36742 3.63258
    endloop
  endfacet
  facet normal -0.281733 0 0.959493
    outer loop
      vertex 2.9079 -10 3.63258
      vertex 0.996203 -6.92875 3.07125
      vertex 0.996203 -10 3.07125
    endloop
  endfacet
  facet normal 0.540641 -0 0.841254
    outer loop
      vertex -4.58402 -10 4.70975
      vertex -2.9079 -6.36742 3.63258
      vertex -4.58402 -5.29025 4.70975
    endloop
  endfacet
  facet normal 0.540641 0 0.841254
    outer loop
      vertex -2.9079 -6.36742 3.63258
      vertex -4.58402 -10 4.70975
      vertex -2.9079 -10 3.63258
    endloop
  endfacet
  facet normal 0.540641 0 0.841254
    outer loop
      vertex -4.58402 10 4.70975
      vertex -2.9079 6.36742 3.63258
      vertex -2.9079 10 3.63258
    endloop
  endfacet
  facet normal 0.540641 0 0.841254
    outer loop
      vertex -2.9079 6.36742 3.63258
      vertex -4.58402 10 4.70975
      vertex -4.58402 5.29025 4.70975
    endloop
  endfacet
  facet normal -0 0 1
    outer loop
      vertex -0.996203 10 3.07125
      vertex 0.996203 6.92875 3.07125
      vertex 0.996203 10 3.07125
    endloop
  endfacet
  facet normal 0 0 1
    outer loop
      vertex 0.996203 6.92875 3.07125
      vertex -0.996203 10 3.07125
      vertex -0.996203 6.92875 3.07125
    endloop
  endfacet
  facet normal -0 0 1
    outer loop
      vertex -0.996203 -6.92875 3.07125
      vertex 0.996203 -10 3.07125
      vertex 0.996203 -6.92875 3.07125
    endloop
  endfacet
  facet normal 0 0 1
    outer loop
      vertex 0.996203 -10 3.07125
      vertex -0.996203 -6.92875 3.07125
      vertex -0.996203 -10 3.07125
    endloop
  endfacet
  facet normal 0.75575 -0 0.654861
    outer loop
      vertex -5.88877 -10 6.21551
      vertex -4.58402 -5.29025 4.70975
      vertex -5.88877 -3.78448 6.21551
    endloop
  endfacet
  facet normal 0.75575 0 0.654861
    outer loop
      vertex -4.58402 -5.29025 4.70975
      vertex -5.88877 -10 6.21551
      vertex -4.58402 -10 4.70975
    endloop
  endfacet
  facet normal 0.75575 0 0.654861
    outer loop
      vertex -5.88877 10 6.21551
      vertex -4.58402 5.29025 4.70975
      vertex -4.58402 10 4.70975
    endloop
  endfacet
  facet normal 0.75575 0 0.654861
    outer loop
      vertex -4.58402 5.29025 4.70975
      vertex -5.88877 10 6.21551
      vertex -5.88877 3.78448 6.21551
    endloop
  endfacet
  facet normal 0.989821 0 -0.142315
    outer loop
      vertex -7 -10 10
      vertex -6.71645 -1.97213 11.9721
      vertex -6.71645 -10 11.9721
    endloop
  endfacet
  facet normal 0.989821 0 -0.142315
    outer loop
      vertex -6.71645 -1.97213 11.9721
      vertex -7 -10 10
      vertex -7 0 10
    endloop
  endfacet
  facet normal 0.989821 0 -0.142315
    outer loop
      vertex -6.71645 1.97213 11.9721
      vertex -7 10 10
      vertex -6.71645 10 11.9721
    endloop
  endfacet
  facet normal 0.989821 0 -0.142315
    outer loop
      vertex -7 10 10
      vertex -6.71645 1.97213 11.9721
      vertex -7 0 10
    endloop
  endfacet
  facet normal 0.989821 0 0.142315
    outer loop
      vertex -7 10 10
      vertex -6.71645 1.97213 8.02787
      vertex -6.71645 10 8.02787
    endloop
  endfacet
  facet normal 0.989821 0 0.142315
    outer loop
      vertex -6.71645 1.97213 8.02787
      vertex -7 10 10
      vertex -7 0 10
    endloop
  endfacet
  facet normal 0.989821 -0 0.142315
    outer loop
      vertex -7 -10 10
      vertex -6.71645 -1.97213 8.02787
      vertex -7 0 10
    endloop
  endfacet
  facet normal 0.989821 0 0.142315
    outer loop
      vertex -6.71645 -1.97213 8.02787
      vertex -7 -10 10
      vertex -6.71645 -10 8.02787
    endloop
  endfacet
  facet normal -0.75575 0 0.654861
    outer loop
      vertex 5.88877 -10 6.21551
      vertex 4.58402 -5.29025 4.70975
      vertex 4.58402 -10 4.70975
    endloop
  endfacet
  facet normal -0.75575 0 0.654861
    outer loop
      vertex 4.58402 -5.29025 4.70975
      vertex 5.88877 -10 6.21551
      vertex 5.88877 -3.78448 6.21551
    endloop
  endfacet
  facet normal -0.75575 0 0.654861
    outer loop
      vertex 4.58402 5.29025 4.70975
      vertex 5.88877 10 6.21551
      vertex 4.58402 10 4.70975
    endloop
  endfacet
  facet normal -0.75575 0 0.654861
    outer loop
      vertex 5.88877 10 6.21551
      vertex 4.58402 5.29025 4.70975
      vertex 5.88877 3.78448 6.21551
    endloop
  endfacet
  facet normal 0.281733 0 0.959493
    outer loop
      vertex -2.9079 10 3.63258
      vertex -0.996203 6.92875 3.07125
      vertex -0.996203 10 3.07125
    endloop
  endfacet
  facet normal 0.281733 0 0.959493
    outer loop
      vertex -0.996203 6.92875 3.07125
      vertex -2.9079 10 3.63258
      vertex -2.9079 6.36742 3.63258
    endloop
  endfacet
  facet normal 0.281733 -0 0.959493
    outer loop
      vertex -2.9079 -10 3.63258
      vertex -0.996203 -6.92875 3.07125
      vertex -2.9079 -6.36742 3.63258
    endloop
  endfacet
  facet normal 0.281733 0 0.959493
    outer loop
      vertex -0.996203 -6.92875 3.07125
      vertex -2.9079 -10 3.63258
      vertex -0.996203 -10 3.07125
    endloop
  endfacet
  facet normal -0.540641 0 0.841254
    outer loop
      vertex 2.9079 -6.36742 3.63258
      vertex 4.58402 -10 4.70975
      vertex 4.58402 -5.29025 4.70975
    endloop
  endfacet
  facet normal -0.540641 0 0.841254
    outer loop
      vertex 4.58402 -10 4.70975
      vertex 2.9079 -6.36742 3.63258
      vertex 2.9079 -10 3.63258
    endloop
  endfacet
  facet normal -0.540641 0 0.841254
    outer loop
      vertex 2.9079 6.36742 3.63258
      vertex 4.58402 10 4.70975
      vertex 2.9079 10 3.63258
    endloop
  endfacet
  facet normal -0.540641 0 0.841254
    outer loop
      vertex 4.58402 10 4.70975
      vertex 2.9079 6.36742 3.63258
      vertex 4.58402 5.29025 4.70975
    endloop
  endfacet
endsolid OpenSCAD_Model
