solid OpenSCAD_Model
  facet normal -0.994522 -0.104528 0
    outer loop
      vertex -78.2518 -16.6329 2
      vertex -80 4.53243e-14 2
      vertex -80 4.53243e-14 0
    endloop
  endfacet
  facet normal -0.994522 -0.104528 0
    outer loop
      vertex -78.2518 -16.6329 0
      vertex -78.2518 -16.6329 2
      vertex -80 4.53243e-14 0
    endloop
  endfacet
  facet normal 0 0 -1
    outer loop
      vertex -73.0836 -32.5389 0
      vertex -78.2518 -16.6329 0
      vertex -73.3611 -15.5934 0
    endloop
  endfacet
  facet normal 0 -0 -1
    outer loop
      vertex -78.2518 16.6329 0
      vertex -75 4.24915e-14 0
      vertex -80 4.53243e-14 0
    endloop
  endfacet
  facet normal 0 0 -1
    outer loop
      vertex -64.7214 -47.0228 0
      vertex -73.0836 -32.5389 0
      vertex -60.6763 -44.0839 0
    endloop
  endfacet
  facet normal -0 0 -1
    outer loop
      vertex -73.3611 -15.5934 0
      vertex -78.2518 -16.6329 0
      vertex -80 4.53243e-14 0
    endloop
  endfacet
  facet normal 0 0 -1
    outer loop
      vertex -73.0836 -32.5389 0
      vertex -73.3611 -15.5934 0
      vertex -68.5159 -30.5052 0
    endloop
  endfacet
  facet normal 0 0 -1
    outer loop
      vertex -73.3611 -15.5934 0
      vertex -80 4.53243e-14 0
      vertex -75 4.24915e-14 0
    endloop
  endfacet
  facet normal 0 0 -1
    outer loop
      vertex -64.7214 -47.0228 0
      vertex -60.6763 -44.0839 0
      vertex -53.5304 -59.4516 0
    endloop
  endfacet
  facet normal 0 0 -1
    outer loop
      vertex -24.7214 -76.0845 0
      vertex -40 -69.282 0
      vertex -23.1763 -71.3292 0
    endloop
  endfacet
  facet normal 0 -0 -1
    outer loop
      vertex -68.5159 -30.5052 0
      vertex -60.6763 -44.0839 0
      vertex -73.0836 -32.5389 0
    endloop
  endfacet
  facet normal -0 0 -1
    outer loop
      vertex -37.5 -64.9519 0
      vertex -40 -69.282 0
      vertex -53.5304 -59.4516 0
    endloop
  endfacet
  facet normal 0 0 -1
    outer loop
      vertex -53.5304 -59.4516 0
      vertex -50.1848 -55.7359 0
      vertex -37.5 -64.9519 0
    endloop
  endfacet
  facet normal -0 0 -1
    outer loop
      vertex -50.1848 -55.7359 0
      vertex -53.5304 -59.4516 0
      vertex -60.6763 -44.0839 0
    endloop
  endfacet
  facet normal 0 0 -1
    outer loop
      vertex -24.7214 -76.0845 0
      vertex -7.83963 -74.5891 0
      vertex -8.36228 -79.5618 0
    endloop
  endfacet
  facet normal -0 0 -1
    outer loop
      vertex 24.7214 -76.0845 0
      vertex 8.36228 -79.5618 0
      vertex 23.1763 -71.3292 0
    endloop
  endfacet
  facet normal 0 -0 -1
    outer loop
      vertex -37.5 -64.9519 0
      vertex -23.1763 -71.3292 0
      vertex -40 -69.282 0
    endloop
  endfacet
  facet normal 0 -0 -1
    outer loop
      vertex -7.83963 -74.5891 0
      vertex 8.36228 -79.5618 0
      vertex -8.36228 -79.5618 0
    endloop
  endfacet
  facet normal 0 0 -1
    outer loop
      vertex 8.36228 -79.5618 0
      vertex -7.83963 -74.5891 0
      vertex 7.83963 -74.5891 0
    endloop
  endfacet
  facet normal -0 0 -1
    outer loop
      vertex -7.83963 -74.5891 0
      vertex -24.7214 -76.0845 0
      vertex -23.1763 -71.3292 0
    endloop
  endfacet
  facet normal 0 0 -1
    outer loop
      vertex 24.7214 -76.0845 0
      vertex 37.5 -64.9519 0
      vertex 40 -69.282 0
    endloop
  endfacet
  facet normal 0 0 -1
    outer loop
      vertex 64.7214 -47.0228 0
      vertex 53.5304 -59.4516 0
      vertex 50.1848 -55.7359 0
    endloop
  endfacet
  facet normal 0 0 -1
    outer loop
      vertex 7.83963 -74.5891 0
      vertex 23.1763 -71.3292 0
      vertex 8.36228 -79.5618 0
    endloop
  endfacet
  facet normal 0 -0 -1
    outer loop
      vertex 50.1848 -55.7359 0
      vertex 53.5304 -59.4516 0
      vertex 40 -69.282 0
    endloop
  endfacet
  facet normal 0 0 -1
    outer loop
      vertex 40 -69.282 0
      vertex 37.5 -64.9519 0
      vertex 50.1848 -55.7359 0
    endloop
  endfacet
  facet normal 0 0 -1
    outer loop
      vertex 37.5 -64.9519 0
      vertex 24.7214 -76.0845 0
      vertex 23.1763 -71.3292 0
    endloop
  endfacet
  facet normal 0 0 -1
    outer loop
      vertex 64.7214 -47.0228 0
      vertex 60.6763 -44.0839 0
      vertex 73.0836 -32.5389 0
    endloop
  endfacet
  facet normal 0 0 -1
    outer loop
      vertex 80 0 0
      vertex 78.2518 -16.6329 0
      vertex 73.3611 -15.5934 0
    endloop
  endfacet
  facet normal 0 0 -1
    outer loop
      vertex 50.1848 -55.7359 0
      vertex 60.6763 -44.0839 0
      vertex 64.7214 -47.0228 0
    endloop
  endfacet
  facet normal 0 0 -1
    outer loop
      vertex 68.5159 -30.5052 0
      vertex 78.2518 -16.6329 0
      vertex 73.0836 -32.5389 0
    endloop
  endfacet
  facet normal -0 0 -1
    outer loop
      vertex 78.2518 -16.6329 0
      vertex 68.5159 -30.5052 0
      vertex 73.3611 -15.5934 0
    endloop
  endfacet
  facet normal 0 -0 -1
    outer loop
      vertex 68.5159 -30.5052 0
      vertex 73.0836 -32.5389 0
      vertex 60.6763 -44.0839 0
    endloop
  endfacet
  facet normal 0 0 -1
    outer loop
      vertex 80 0 0
      vertex 73.3611 15.5934 0
      vertex 78.2518 16.6329 0
    endloop
  endfacet
  facet normal 0 -0 -1
    outer loop
      vertex 64.7214 47.0228 0
      vertex 73.0836 32.5389 0
      vertex 60.6763 44.0839 0
    endloop
  endfacet
  facet normal 0 0 -1
    outer loop
      vertex 73.3611 -15.5934 0
      vertex 75 0 0
      vertex 80 0 0
    endloop
  endfacet
  facet normal 0 0 -1
    outer loop
      vertex 73.3611 15.5934 0
      vertex 73.0836 32.5389 0
      vertex 78.2518 16.6329 0
    endloop
  endfacet
  facet normal 0 -0 -1
    outer loop
      vertex 73.0836 32.5389 0
      vertex 73.3611 15.5934 0
      vertex 68.5159 30.5052 0
    endloop
  endfacet
  facet normal 0 0 -1
    outer loop
      vertex 73.3611 15.5934 0
      vertex 80 0 0
      vertex 75 0 0
    endloop
  endfacet
  facet normal 0 0 -1
    outer loop
      vertex 64.7214 47.0228 0
      vertex 50.1848 55.7359 0
      vertex 53.5304 59.4516 0
    endloop
  endfacet
  facet normal 0 0 -1
    outer loop
      vertex 24.7214 76.0845 0
      vertex 40 69.282 0
      vertex 37.5 64.9519 0
    endloop
  endfacet
  facet normal 0 0 -1
    outer loop
      vertex 68.5159 30.5052 0
      vertex 60.6763 44.0839 0
      vertex 73.0836 32.5389 0
    endloop
  endfacet
  facet normal 0 0 -1
    outer loop
      vertex 50.1848 55.7359 0
      vertex 40 69.282 0
      vertex 53.5304 59.4516 0
    endloop
  endfacet
  facet normal 0 -0 -1
    outer loop
      vertex 40 69.282 0
      vertex 50.1848 55.7359 0
      vertex 37.5 64.9519 0
    endloop
  endfacet
  facet normal 0 0 -1
    outer loop
      vertex 50.1848 55.7359 0
      vertex 64.7214 47.0228 0
      vertex 60.6763 44.0839 0
    endloop
  endfacet
  facet normal -0 0 -1
    outer loop
      vertex 24.7214 76.0845 0
      vertex 7.83963 74.5891 0
      vertex 8.36228 79.5618 0
    endloop
  endfacet
  facet normal 0 0 -1
    outer loop
      vertex -24.7214 76.0845 0
      vertex -8.36228 79.5618 0
      vertex -23.1763 71.3292 0
    endloop
  endfacet
  facet normal 0 0 -1
    outer loop
      vertex 37.5 64.9519 0
      vertex 23.1763 71.3292 0
      vertex 24.7214 76.0845 0
    endloop
  endfacet
  facet normal 0 0 -1
    outer loop
      vertex -7.83963 74.5891 0
      vertex -8.36228 79.5618 0
      vertex 8.36228 79.5618 0
    endloop
  endfacet
  facet normal 0 0 -1
    outer loop
      vertex 8.36228 79.5618 0
      vertex 7.83963 74.5891 0
      vertex -7.83963 74.5891 0
    endloop
  endfacet
  facet normal 0 0 -1
    outer loop
      vertex 7.83963 74.5891 0
      vertex 24.7214 76.0845 0
      vertex 23.1763 71.3292 0
    endloop
  endfacet
  facet normal 0 0 -1
    outer loop
      vertex -24.7214 76.0845 0
      vertex -37.5 64.9519 0
      vertex -40 69.282 0
    endloop
  endfacet
  facet normal 0 0 -1
    outer loop
      vertex -64.7214 47.0228 0
      vertex -53.5304 59.4516 0
      vertex -50.1848 55.7359 0
    endloop
  endfacet
  facet normal -0 0 -1
    outer loop
      vertex -7.83963 74.5891 0
      vertex -23.1763 71.3292 0
      vertex -8.36228 79.5618 0
    endloop
  endfacet
  facet normal -0 0 -1
    outer loop
      vertex -37.5 64.9519 0
      vertex -53.5304 59.4516 0
      vertex -40 69.282 0
    endloop
  endfacet
  facet normal 0 0 -1
    outer loop
      vertex -53.5304 59.4516 0
      vertex -37.5 64.9519 0
      vertex -50.1848 55.7359 0
    endloop
  endfacet
  facet normal 0 0 -1
    outer loop
      vertex -37.5 64.9519 0
      vertex -24.7214 76.0845 0
      vertex -23.1763 71.3292 0
    endloop
  endfacet
  facet normal 0 -0 -1
    outer loop
      vertex -64.7214 47.0228 0
      vertex -60.6763 44.0839 0
      vertex -73.0836 32.5389 0
    endloop
  endfacet
  facet normal 0 0 -1
    outer loop
      vertex -50.1848 55.7359 0
      vertex -60.6763 44.0839 0
      vertex -64.7214 47.0228 0
    endloop
  endfacet
  facet normal 0 0 -1
    outer loop
      vertex -60.6763 44.0839 0
      vertex -68.5159 30.5052 0
      vertex -73.0836 32.5389 0
    endloop
  endfacet
  facet normal -0 0 -1
    outer loop
      vertex -68.5159 30.5052 0
      vertex -78.2518 16.6329 0
      vertex -73.0836 32.5389 0
    endloop
  endfacet
  facet normal 0 0 -1
    outer loop
      vertex -68.5159 30.5052 0
      vertex -73.3611 15.5934 0
      vertex -78.2518 16.6329 0
    endloop
  endfacet
  facet normal -0 0 -1
    outer loop
      vertex -73.3611 15.5934 0
      vertex -75 4.24915e-14 0
      vertex -78.2518 16.6329 0
    endloop
  endfacet
  facet normal -0.587785 0.809017 0
    outer loop
      vertex -53.5304 59.4516 2
      vertex -40 69.282 0
      vertex -53.5304 59.4516 0
    endloop
  endfacet
  facet normal -0.587785 0.809017 0
    outer loop
      vertex -53.5304 59.4516 2
      vertex -40 69.282 2
      vertex -40 69.282 0
    endloop
  endfacet
  facet normal 0.207912 -0.978148 0
    outer loop
      vertex 24.7214 -76.0845 0
      vertex 8.36228 -79.5618 2
      vertex 8.36228 -79.5618 0
    endloop
  endfacet
  facet normal 0.207912 -0.978148 0
    outer loop
      vertex 24.7214 -76.0845 0
      vertex 24.7214 -76.0845 2
      vertex 8.36228 -79.5618 2
    endloop
  endfacet
  facet normal 0 0 1
    outer loop
      vertex -73.0836 32.5389 2
      vertex -78.2518 16.6329 2
      vertex -68.5159 30.5052 2
    endloop
  endfacet
  facet normal 0 -0 1
    outer loop
      vertex -78.2518 -16.6329 2
      vertex -73.3611 -15.5934 2
      vertex -80 4.53243e-14 2
    endloop
  endfacet
  facet normal 0 0 1
    outer loop
      vertex -73.0836 -32.5389 2
      vertex -73.3611 -15.5934 2
      vertex -78.2518 -16.6329 2
    endloop
  endfacet
  facet normal 0 0 1
    outer loop
      vertex -75 4.24915e-14 2
      vertex -78.2518 16.6329 2
      vertex -80 4.53243e-14 2
    endloop
  endfacet
  facet normal 0 0 1
    outer loop
      vertex -78.2518 16.6329 2
      vertex -75 4.24915e-14 2
      vertex -73.3611 15.5934 2
    endloop
  endfacet
  facet normal 0 0 1
    outer loop
      vertex -75 4.24915e-14 2
      vertex -80 4.53243e-14 2
      vertex -73.3611 -15.5934 2
    endloop
  endfacet
  facet normal 0 0 1
    outer loop
      vertex -73.0836 32.5389 2
      vertex -60.6763 44.0839 2
      vertex -64.7214 47.0228 2
    endloop
  endfacet
  facet normal 0 0 1
    outer loop
      vertex -40 69.282 2
      vertex -53.5304 59.4516 2
      vertex -37.5 64.9519 2
    endloop
  endfacet
  facet normal 0 -0 1
    outer loop
      vertex -73.3611 15.5934 2
      vertex -68.5159 30.5052 2
      vertex -78.2518 16.6329 2
    endloop
  endfacet
  facet normal 0 0 1
    outer loop
      vertex -50.1848 55.7359 2
      vertex -53.5304 59.4516 2
      vertex -64.7214 47.0228 2
    endloop
  endfacet
  facet normal -0 0 1
    outer loop
      vertex -64.7214 47.0228 2
      vertex -60.6763 44.0839 2
      vertex -50.1848 55.7359 2
    endloop
  endfacet
  facet normal 0 0 1
    outer loop
      vertex -60.6763 44.0839 2
      vertex -73.0836 32.5389 2
      vertex -68.5159 30.5052 2
    endloop
  endfacet
  facet normal -0 0 1
    outer loop
      vertex -40 69.282 2
      vertex -37.5 64.9519 2
      vertex -24.7214 76.0845 2
    endloop
  endfacet
  facet normal 0 0 1
    outer loop
      vertex 8.36228 79.5618 2
      vertex -8.36228 79.5618 2
      vertex -7.83963 74.5891 2
    endloop
  endfacet
  facet normal 0 -0 1
    outer loop
      vertex -50.1848 55.7359 2
      vertex -37.5 64.9519 2
      vertex -53.5304 59.4516 2
    endloop
  endfacet
  facet normal 0 -0 1
    outer loop
      vertex -23.1763 71.3292 2
      vertex -8.36228 79.5618 2
      vertex -24.7214 76.0845 2
    endloop
  endfacet
  facet normal 0 0 1
    outer loop
      vertex -8.36228 79.5618 2
      vertex -23.1763 71.3292 2
      vertex -7.83963 74.5891 2
    endloop
  endfacet
  facet normal 0 0 1
    outer loop
      vertex -23.1763 71.3292 2
      vertex -24.7214 76.0845 2
      vertex -37.5 64.9519 2
    endloop
  endfacet
  facet normal 0 0 1
    outer loop
      vertex 8.36228 79.5618 2
      vertex 7.83963 74.5891 2
      vertex 24.7214 76.0845 2
    endloop
  endfacet
  facet normal 0 0 1
    outer loop
      vertex 53.5304 59.4516 2
      vertex 40 69.282 2
      vertex 50.1848 55.7359 2
    endloop
  endfacet
  facet normal -0 0 1
    outer loop
      vertex -7.83963 74.5891 2
      vertex 7.83963 74.5891 2
      vertex 8.36228 79.5618 2
    endloop
  endfacet
  facet normal 0 -0 1
    outer loop
      vertex 37.5 64.9519 2
      vertex 40 69.282 2
      vertex 24.7214 76.0845 2
    endloop
  endfacet
  facet normal 0 0 1
    outer loop
      vertex 24.7214 76.0845 2
      vertex 23.1763 71.3292 2
      vertex 37.5 64.9519 2
    endloop
  endfacet
  facet normal 0 -0 1
    outer loop
      vertex 23.1763 71.3292 2
      vertex 24.7214 76.0845 2
      vertex 7.83963 74.5891 2
    endloop
  endfacet
  facet normal 0 0 1
    outer loop
      vertex 53.5304 59.4516 2
      vertex 50.1848 55.7359 2
      vertex 64.7214 47.0228 2
    endloop
  endfacet
  facet normal 0 0 1
    outer loop
      vertex 78.2518 16.6329 2
      vertex 73.0836 32.5389 2
      vertex 73.3611 15.5934 2
    endloop
  endfacet
  facet normal -0 0 1
    outer loop
      vertex 37.5 64.9519 2
      vertex 50.1848 55.7359 2
      vertex 40 69.282 2
    endloop
  endfacet
  facet normal -0 0 1
    outer loop
      vertex 60.6763 44.0839 2
      vertex 73.0836 32.5389 2
      vertex 64.7214 47.0228 2
    endloop
  endfacet
  facet normal 0 0 1
    outer loop
      vertex 73.0836 32.5389 2
      vertex 60.6763 44.0839 2
      vertex 68.5159 30.5052 2
    endloop
  endfacet
  facet normal 0 -0 1
    outer loop
      vertex 60.6763 44.0839 2
      vertex 64.7214 47.0228 2
      vertex 50.1848 55.7359 2
    endloop
  endfacet
  facet normal 0 0 1
    outer loop
      vertex 78.2518 16.6329 2
      vertex 73.3611 15.5934 2
      vertex 80 0 2
    endloop
  endfacet
  facet normal 0 -0 1
    outer loop
      vertex 73.0836 -32.5389 2
      vertex 78.2518 -16.6329 2
      vertex 68.5159 -30.5052 2
    endloop
  endfacet
  facet normal -0 0 1
    outer loop
      vertex 68.5159 30.5052 2
      vertex 73.3611 15.5934 2
      vertex 73.0836 32.5389 2
    endloop
  endfacet
  facet normal -0 0 1
    outer loop
      vertex 73.3611 -15.5934 2
      vertex 78.2518 -16.6329 2
      vertex 80 0 2
    endloop
  endfacet
  facet normal 0 0 1
    outer loop
      vertex 80 0 2
      vertex 75 0 2
      vertex 73.3611 -15.5934 2
    endloop
  endfacet
  facet normal 0 -0 1
    outer loop
      vertex 75 0 2
      vertex 80 0 2
      vertex 73.3611 15.5934 2
    endloop
  endfacet
  facet normal 0 0 1
    outer loop
      vertex 73.0836 -32.5389 2
      vertex 60.6763 -44.0839 2
      vertex 64.7214 -47.0228 2
    endloop
  endfacet
  facet normal 0 0 1
    outer loop
      vertex 40 -69.282 2
      vertex 53.5304 -59.4516 2
      vertex 50.1848 -55.7359 2
    endloop
  endfacet
  facet normal 0 0 1
    outer loop
      vertex 73.3611 -15.5934 2
      vertex 68.5159 -30.5052 2
      vertex 78.2518 -16.6329 2
    endloop
  endfacet
  facet normal -0 0 1
    outer loop
      vertex 50.1848 -55.7359 2
      vertex 53.5304 -59.4516 2
      vertex 64.7214 -47.0228 2
    endloop
  endfacet
  facet normal 0 0 1
    outer loop
      vertex 64.7214 -47.0228 2
      vertex 60.6763 -44.0839 2
      vertex 50.1848 -55.7359 2
    endloop
  endfacet
  facet normal 0 0 1
    outer loop
      vertex 60.6763 -44.0839 2
      vertex 73.0836 -32.5389 2
      vertex 68.5159 -30.5052 2
    endloop
  endfacet
  facet normal 0 0 1
    outer loop
      vertex 40 -69.282 2
      vertex 37.5 -64.9519 2
      vertex 24.7214 -76.0845 2
    endloop
  endfacet
  facet normal 0 0 1
    outer loop
      vertex -8.36228 -79.5618 2
      vertex 8.36228 -79.5618 2
      vertex -7.83963 -74.5891 2
    endloop
  endfacet
  facet normal 0 0 1
    outer loop
      vertex 50.1848 -55.7359 2
      vertex 37.5 -64.9519 2
      vertex 40 -69.282 2
    endloop
  endfacet
  facet normal 0 0 1
    outer loop
      vertex 23.1763 -71.3292 2
      vertex 8.36228 -79.5618 2
      vertex 24.7214 -76.0845 2
    endloop
  endfacet
  facet normal 0 -0 1
    outer loop
      vertex 8.36228 -79.5618 2
      vertex 23.1763 -71.3292 2
      vertex 7.83963 -74.5891 2
    endloop
  endfacet
  facet normal -0 0 1
    outer loop
      vertex 23.1763 -71.3292 2
      vertex 24.7214 -76.0845 2
      vertex 37.5 -64.9519 2
    endloop
  endfacet
  facet normal 0 -0 1
    outer loop
      vertex -8.36228 -79.5618 2
      vertex -7.83963 -74.5891 2
      vertex -24.7214 -76.0845 2
    endloop
  endfacet
  facet normal 0 0 1
    outer loop
      vertex -53.5304 -59.4516 2
      vertex -40 -69.282 2
      vertex -37.5 -64.9519 2
    endloop
  endfacet
  facet normal 0 0 1
    outer loop
      vertex 7.83963 -74.5891 2
      vertex -7.83963 -74.5891 2
      vertex 8.36228 -79.5618 2
    endloop
  endfacet
  facet normal 0 0 1
    outer loop
      vertex -23.1763 -71.3292 2
      vertex -40 -69.282 2
      vertex -24.7214 -76.0845 2
    endloop
  endfacet
  facet normal -0 0 1
    outer loop
      vertex -40 -69.282 2
      vertex -23.1763 -71.3292 2
      vertex -37.5 -64.9519 2
    endloop
  endfacet
  facet normal 0 0 1
    outer loop
      vertex -23.1763 -71.3292 2
      vertex -24.7214 -76.0845 2
      vertex -7.83963 -74.5891 2
    endloop
  endfacet
  facet normal 0 0 1
    outer loop
      vertex -53.5304 -59.4516 2
      vertex -60.6763 -44.0839 2
      vertex -64.7214 -47.0228 2
    endloop
  endfacet
  facet normal 0 0 1
    outer loop
      vertex -37.5 -64.9519 2
      vertex -50.1848 -55.7359 2
      vertex -53.5304 -59.4516 2
    endloop
  endfacet
  facet normal 0 0 1
    outer loop
      vertex -60.6763 -44.0839 2
      vertex -73.0836 -32.5389 2
      vertex -64.7214 -47.0228 2
    endloop
  endfacet
  facet normal 0 0 1
    outer loop
      vertex -50.1848 -55.7359 2
      vertex -60.6763 -44.0839 2
      vertex -53.5304 -59.4516 2
    endloop
  endfacet
  facet normal 0 0 1
    outer loop
      vertex -60.6763 -44.0839 2
      vertex -68.5159 -30.5052 2
      vertex -73.0836 -32.5389 2
    endloop
  endfacet
  facet normal 0 0 1
    outer loop
      vertex -68.5159 -30.5052 2
      vertex -73.3611 -15.5934 2
      vertex -73.0836 -32.5389 2
    endloop
  endfacet
  facet normal 0.587785 -0.809017 0
    outer loop
      vertex 53.5304 -59.4516 0
      vertex 40 -69.282 2
      vertex 40 -69.282 0
    endloop
  endfacet
  facet normal 0.587785 -0.809017 0
    outer loop
      vertex 53.5304 -59.4516 0
      vertex 53.5304 -59.4516 2
      vertex 40 -69.282 2
    endloop
  endfacet
  facet normal 0 -1 0
    outer loop
      vertex 8.36228 -79.5618 0
      vertex -8.36228 -79.5618 2
      vertex -8.36228 -79.5618 0
    endloop
  endfacet
  facet normal 0 -1 0
    outer loop
      vertex 8.36228 -79.5618 0
      vertex 8.36228 -79.5618 2
      vertex -8.36228 -79.5618 2
    endloop
  endfacet
  facet normal 0.866025 -0.5 0
    outer loop
      vertex 73.0836 -32.5389 0
      vertex 64.7214 -47.0228 2
      vertex 64.7214 -47.0228 0
    endloop
  endfacet
  facet normal 0.866025 -0.5 0
    outer loop
      vertex 73.0836 -32.5389 0
      vertex 73.0836 -32.5389 2
      vertex 64.7214 -47.0228 2
    endloop
  endfacet
  facet normal 0.743145 0.669131 0
    outer loop
      vertex 64.7214 47.0228 2
      vertex 64.7214 47.0228 0
      vertex 53.5304 59.4516 0
    endloop
  endfacet
  facet normal 0.743145 0.669131 0
    outer loop
      vertex 53.5304 59.4516 2
      vertex 64.7214 47.0228 2
      vertex 53.5304 59.4516 0
    endloop
  endfacet
  facet normal 0.207912 0.978148 0
    outer loop
      vertex 8.36228 79.5618 2
      vertex 24.7214 76.0845 0
      vertex 8.36228 79.5618 0
    endloop
  endfacet
  facet normal 0.207912 0.978148 0
    outer loop
      vertex 8.36228 79.5618 2
      vertex 24.7214 76.0845 2
      vertex 24.7214 76.0845 0
    endloop
  endfacet
  facet normal -0.951057 0.309017 0
    outer loop
      vertex -78.2518 16.6329 2
      vertex -73.0836 32.5389 0
      vertex -78.2518 16.6329 0
    endloop
  endfacet
  facet normal -0.951057 0.309017 0
    outer loop
      vertex -78.2518 16.6329 2
      vertex -73.0836 32.5389 2
      vertex -73.0836 32.5389 0
    endloop
  endfacet
  facet normal -0.994522 0.104528 0
    outer loop
      vertex -80 4.53243e-14 2
      vertex -78.2518 16.6329 0
      vertex -80 4.53243e-14 0
    endloop
  endfacet
  facet normal -0.994522 0.104528 0
    outer loop
      vertex -80 4.53243e-14 2
      vertex -78.2518 16.6329 2
      vertex -78.2518 16.6329 0
    endloop
  endfacet
  facet normal -0.587785 -0.809017 0
    outer loop
      vertex -40 -69.282 0
      vertex -53.5304 -59.4516 2
      vertex -53.5304 -59.4516 0
    endloop
  endfacet
  facet normal -0.587785 -0.809017 0
    outer loop
      vertex -40 -69.282 0
      vertex -40 -69.282 2
      vertex -53.5304 -59.4516 2
    endloop
  endfacet
  facet normal -0.743145 -0.669131 0
    outer loop
      vertex -53.5304 -59.4516 2
      vertex -64.7214 -47.0228 2
      vertex -64.7214 -47.0228 0
    endloop
  endfacet
  facet normal -0.743145 -0.669131 0
    outer loop
      vertex -53.5304 -59.4516 0
      vertex -53.5304 -59.4516 2
      vertex -64.7214 -47.0228 0
    endloop
  endfacet
  facet normal -0.866025 -0.5 0
    outer loop
      vertex -64.7214 -47.0228 2
      vertex -73.0836 -32.5389 2
      vertex -73.0836 -32.5389 0
    endloop
  endfacet
  facet normal -0.866025 -0.5 0
    outer loop
      vertex -64.7214 -47.0228 0
      vertex -64.7214 -47.0228 2
      vertex -73.0836 -32.5389 0
    endloop
  endfacet
  facet normal -0.951057 -0.309017 0
    outer loop
      vertex -73.0836 -32.5389 2
      vertex -78.2518 -16.6329 2
      vertex -78.2518 -16.6329 0
    endloop
  endfacet
  facet normal -0.951057 -0.309017 0
    outer loop
      vertex -73.0836 -32.5389 0
      vertex -73.0836 -32.5389 2
      vertex -78.2518 -16.6329 0
    endloop
  endfacet
  facet normal 0.866025 0.5 0
    outer loop
      vertex 73.0836 32.5389 2
      vertex 73.0836 32.5389 0
      vertex 64.7214 47.0228 0
    endloop
  endfacet
  facet normal 0.866025 0.5 0
    outer loop
      vertex 64.7214 47.0228 2
      vertex 73.0836 32.5389 2
      vertex 64.7214 47.0228 0
    endloop
  endfacet
  facet normal 0.994522 0.104528 0
    outer loop
      vertex 80 0 2
      vertex 80 0 0
      vertex 78.2518 16.6329 0
    endloop
  endfacet
  facet normal 0.994522 0.104528 0
    outer loop
      vertex 78.2518 16.6329 2
      vertex 80 0 2
      vertex 78.2518 16.6329 0
    endloop
  endfacet
  facet normal 0.406737 -0.913545 0
    outer loop
      vertex 40 -69.282 0
      vertex 24.7214 -76.0845 2
      vertex 24.7214 -76.0845 0
    endloop
  endfacet
  facet normal 0.406737 -0.913545 0
    outer loop
      vertex 40 -69.282 0
      vertex 40 -69.282 2
      vertex 24.7214 -76.0845 2
    endloop
  endfacet
  facet normal 0.951057 -0.309017 0
    outer loop
      vertex 78.2518 -16.6329 0
      vertex 73.0836 -32.5389 2
      vertex 73.0836 -32.5389 0
    endloop
  endfacet
  facet normal 0.951057 -0.309017 0
    outer loop
      vertex 78.2518 -16.6329 0
      vertex 78.2518 -16.6329 2
      vertex 73.0836 -32.5389 2
    endloop
  endfacet
  facet normal 0.743145 -0.669131 0
    outer loop
      vertex 64.7214 -47.0228 0
      vertex 53.5304 -59.4516 2
      vertex 53.5304 -59.4516 0
    endloop
  endfacet
  facet normal 0.743145 -0.669131 0
    outer loop
      vertex 64.7214 -47.0228 0
      vertex 64.7214 -47.0228 2
      vertex 53.5304 -59.4516 2
    endloop
  endfacet
  facet normal 0.587785 0.809017 0
    outer loop
      vertex 40 69.282 2
      vertex 53.5304 59.4516 0
      vertex 40 69.282 0
    endloop
  endfacet
  facet normal 0.587785 0.809017 0
    outer loop
      vertex 40 69.282 2
      vertex 53.5304 59.4516 2
      vertex 53.5304 59.4516 0
    endloop
  endfacet
  facet normal 0.406737 0.913545 0
    outer loop
      vertex 24.7214 76.0845 2
      vertex 40 69.282 0
      vertex 24.7214 76.0845 0
    endloop
  endfacet
  facet normal 0.406737 0.913545 0
    outer loop
      vertex 24.7214 76.0845 2
      vertex 40 69.282 2
      vertex 40 69.282 0
    endloop
  endfacet
  facet normal -0.406737 0.913545 0
    outer loop
      vertex -40 69.282 2
      vertex -24.7214 76.0845 0
      vertex -40 69.282 0
    endloop
  endfacet
  facet normal -0.406737 0.913545 0
    outer loop
      vertex -40 69.282 2
      vertex -24.7214 76.0845 2
      vertex -24.7214 76.0845 0
    endloop
  endfacet
  facet normal -0.207912 0.978148 0
    outer loop
      vertex -24.7214 76.0845 2
      vertex -8.36228 79.5618 0
      vertex -24.7214 76.0845 0
    endloop
  endfacet
  facet normal -0.207912 0.978148 0
    outer loop
      vertex -24.7214 76.0845 2
      vertex -8.36228 79.5618 2
      vertex -8.36228 79.5618 0
    endloop
  endfacet
  facet normal 0 1 0
    outer loop
      vertex -8.36228 79.5618 2
      vertex 8.36228 79.5618 0
      vertex -8.36228 79.5618 0
    endloop
  endfacet
  facet normal -0 1 0
    outer loop
      vertex -8.36228 79.5618 2
      vertex 8.36228 79.5618 2
      vertex 8.36228 79.5618 0
    endloop
  endfacet
  facet normal -0.207912 -0.978148 0
    outer loop
      vertex -8.36228 -79.5618 0
      vertex -24.7214 -76.0845 2
      vertex -24.7214 -76.0845 0
    endloop
  endfacet
  facet normal -0.207912 -0.978148 0
    outer loop
      vertex -8.36228 -79.5618 0
      vertex -8.36228 -79.5618 2
      vertex -24.7214 -76.0845 2
    endloop
  endfacet
  facet normal -0.406737 -0.913545 0
    outer loop
      vertex -24.7214 -76.0845 0
      vertex -40 -69.282 2
      vertex -40 -69.282 0
    endloop
  endfacet
  facet normal -0.406737 -0.913545 0
    outer loop
      vertex -24.7214 -76.0845 0
      vertex -24.7214 -76.0845 2
      vertex -40 -69.282 2
    endloop
  endfacet
  facet normal 0.951057 0.309017 0
    outer loop
      vertex 78.2518 16.6329 2
      vertex 78.2518 16.6329 0
      vertex 73.0836 32.5389 0
    endloop
  endfacet
  facet normal 0.951057 0.309017 0
    outer loop
      vertex 73.0836 32.5389 2
      vertex 78.2518 16.6329 2
      vertex 73.0836 32.5389 0
    endloop
  endfacet
  facet normal 0.994522 -0.104528 0
    outer loop
      vertex 80 0 0
      vertex 78.2518 -16.6329 2
      vertex 78.2518 -16.6329 0
    endloop
  endfacet
  facet normal 0.994522 -0.104528 0
    outer loop
      vertex 80 0 0
      vertex 80 0 2
      vertex 78.2518 -16.6329 2
    endloop
  endfacet
  facet normal -0.866025 0.5 0
    outer loop
      vertex -73.0836 32.5389 2
      vertex -64.7214 47.0228 0
      vertex -73.0836 32.5389 0
    endloop
  endfacet
  facet normal -0.866025 0.5 0
    outer loop
      vertex -73.0836 32.5389 2
      vertex -64.7214 47.0228 2
      vertex -64.7214 47.0228 0
    endloop
  endfacet
  facet normal -0.743145 0.669131 0
    outer loop
      vertex -64.7214 47.0228 2
      vertex -53.5304 59.4516 0
      vertex -64.7214 47.0228 0
    endloop
  endfacet
  facet normal -0.743145 0.669131 0
    outer loop
      vertex -64.7214 47.0228 2
      vertex -53.5304 59.4516 2
      vertex -53.5304 59.4516 0
    endloop
  endfacet
  facet normal 0.994522 0.104528 -0
    outer loop
      vertex -75 4.24915e-14 0
      vertex -75 4.24915e-14 2
      vertex -73.3611 -15.5934 2
    endloop
  endfacet
  facet normal 0.994522 0.104528 -0
    outer loop
      vertex -73.3611 -15.5934 0
      vertex -75 4.24915e-14 0
      vertex -73.3611 -15.5934 2
    endloop
  endfacet
  facet normal -0.207912 0.978148 0
    outer loop
      vertex 23.1763 -71.3292 0
      vertex 7.83963 -74.5891 2
      vertex 23.1763 -71.3292 2
    endloop
  endfacet
  facet normal -0.207912 0.978148 0
    outer loop
      vertex 23.1763 -71.3292 0
      vertex 7.83963 -74.5891 0
      vertex 7.83963 -74.5891 2
    endloop
  endfacet
  facet normal 0.743145 -0.669131 0
    outer loop
      vertex -60.6763 44.0839 2
      vertex -50.1848 55.7359 0
      vertex -50.1848 55.7359 2
    endloop
  endfacet
  facet normal 0.743145 -0.669131 0
    outer loop
      vertex -60.6763 44.0839 2
      vertex -60.6763 44.0839 0
      vertex -50.1848 55.7359 0
    endloop
  endfacet
  facet normal 0.207912 0.978148 -0
    outer loop
      vertex -7.83963 -74.5891 0
      vertex -23.1763 -71.3292 2
      vertex -7.83963 -74.5891 2
    endloop
  endfacet
  facet normal 0.207912 0.978148 0
    outer loop
      vertex -7.83963 -74.5891 0
      vertex -23.1763 -71.3292 0
      vertex -23.1763 -71.3292 2
    endloop
  endfacet
  facet normal -0.994522 0.104528 0
    outer loop
      vertex 75 0 0
      vertex 73.3611 -15.5934 2
      vertex 75 0 2
    endloop
  endfacet
  facet normal -0.994522 0.104528 0
    outer loop
      vertex 75 0 0
      vertex 73.3611 -15.5934 0
      vertex 73.3611 -15.5934 2
    endloop
  endfacet
  facet normal -0.406737 0.913545 0
    outer loop
      vertex 37.5 -64.9519 0
      vertex 23.1763 -71.3292 2
      vertex 37.5 -64.9519 2
    endloop
  endfacet
  facet normal -0.406737 0.913545 0
    outer loop
      vertex 37.5 -64.9519 0
      vertex 23.1763 -71.3292 0
      vertex 23.1763 -71.3292 2
    endloop
  endfacet
  facet normal -9.06347e-16 -1 0
    outer loop
      vertex -7.83963 74.5891 2
      vertex 7.83963 74.5891 0
      vertex 7.83963 74.5891 2
    endloop
  endfacet
  facet normal -9.06347e-16 -1 -0
    outer loop
      vertex -7.83963 74.5891 2
      vertex -7.83963 74.5891 0
      vertex 7.83963 74.5891 0
    endloop
  endfacet
  facet normal 9.06347e-16 1 -0
    outer loop
      vertex 7.83963 -74.5891 0
      vertex -7.83963 -74.5891 2
      vertex 7.83963 -74.5891 2
    endloop
  endfacet
  facet normal 9.06347e-16 1 0
    outer loop
      vertex 7.83963 -74.5891 0
      vertex -7.83963 -74.5891 0
      vertex -7.83963 -74.5891 2
    endloop
  endfacet
  facet normal 0.994522 -0.104528 0
    outer loop
      vertex -75 4.24915e-14 2
      vertex -73.3611 15.5934 0
      vertex -73.3611 15.5934 2
    endloop
  endfacet
  facet normal 0.994522 -0.104528 0
    outer loop
      vertex -75 4.24915e-14 2
      vertex -75 4.24915e-14 0
      vertex -73.3611 15.5934 0
    endloop
  endfacet
  facet normal -0.951057 0.309017 0
    outer loop
      vertex 73.3611 -15.5934 0
      vertex 68.5159 -30.5052 2
      vertex 73.3611 -15.5934 2
    endloop
  endfacet
  facet normal -0.951057 0.309017 0
    outer loop
      vertex 73.3611 -15.5934 0
      vertex 68.5159 -30.5052 0
      vertex 68.5159 -30.5052 2
    endloop
  endfacet
  facet normal -0.866025 0.5 0
    outer loop
      vertex 68.5159 -30.5052 0
      vertex 60.6763 -44.0839 2
      vertex 68.5159 -30.5052 2
    endloop
  endfacet
  facet normal -0.866025 0.5 0
    outer loop
      vertex 68.5159 -30.5052 0
      vertex 60.6763 -44.0839 0
      vertex 60.6763 -44.0839 2
    endloop
  endfacet
  facet normal -0.866025 -0.5 0
    outer loop
      vertex 60.6763 44.0839 0
      vertex 68.5159 30.5052 0
      vertex 68.5159 30.5052 2
    endloop
  endfacet
  facet normal -0.866025 -0.5 -0
    outer loop
      vertex 60.6763 44.0839 2
      vertex 60.6763 44.0839 0
      vertex 68.5159 30.5052 2
    endloop
  endfacet
  facet normal -0.951057 -0.309017 0
    outer loop
      vertex 68.5159 30.5052 0
      vertex 73.3611 15.5934 0
      vertex 73.3611 15.5934 2
    endloop
  endfacet
  facet normal -0.951057 -0.309017 -0
    outer loop
      vertex 68.5159 30.5052 2
      vertex 68.5159 30.5052 0
      vertex 73.3611 15.5934 2
    endloop
  endfacet
  facet normal -0.994522 -0.104528 0
    outer loop
      vertex 73.3611 15.5934 0
      vertex 75 0 0
      vertex 75 0 2
    endloop
  endfacet
  facet normal -0.994522 -0.104528 -0
    outer loop
      vertex 73.3611 15.5934 2
      vertex 73.3611 15.5934 0
      vertex 75 0 2
    endloop
  endfacet
  facet normal -0.587785 -0.809017 0
    outer loop
      vertex 37.5 64.9519 2
      vertex 50.1848 55.7359 0
      vertex 50.1848 55.7359 2
    endloop
  endfacet
  facet normal -0.587785 -0.809017 -0
    outer loop
      vertex 37.5 64.9519 2
      vertex 37.5 64.9519 0
      vertex 50.1848 55.7359 0
    endloop
  endfacet
  facet normal 0.866025 -0.5 0
    outer loop
      vertex -68.5159 30.5052 2
      vertex -60.6763 44.0839 0
      vertex -60.6763 44.0839 2
    endloop
  endfacet
  facet normal 0.866025 -0.5 0
    outer loop
      vertex -68.5159 30.5052 2
      vertex -68.5159 30.5052 0
      vertex -60.6763 44.0839 0
    endloop
  endfacet
  facet normal 0.406737 0.913545 -0
    outer loop
      vertex -23.1763 -71.3292 0
      vertex -37.5 -64.9519 2
      vertex -23.1763 -71.3292 2
    endloop
  endfacet
  facet normal 0.406737 0.913545 0
    outer loop
      vertex -23.1763 -71.3292 0
      vertex -37.5 -64.9519 0
      vertex -37.5 -64.9519 2
    endloop
  endfacet
  facet normal 0.587785 0.809017 -0
    outer loop
      vertex -37.5 -64.9519 0
      vertex -50.1848 -55.7359 2
      vertex -37.5 -64.9519 2
    endloop
  endfacet
  facet normal 0.587785 0.809017 0
    outer loop
      vertex -37.5 -64.9519 0
      vertex -50.1848 -55.7359 0
      vertex -50.1848 -55.7359 2
    endloop
  endfacet
  facet normal 0.743145 0.669131 -0
    outer loop
      vertex -60.6763 -44.0839 0
      vertex -60.6763 -44.0839 2
      vertex -50.1848 -55.7359 2
    endloop
  endfacet
  facet normal 0.743145 0.669131 -0
    outer loop
      vertex -50.1848 -55.7359 0
      vertex -60.6763 -44.0839 0
      vertex -50.1848 -55.7359 2
    endloop
  endfacet
  facet normal 0.866025 0.5 -0
    outer loop
      vertex -68.5159 -30.5052 0
      vertex -68.5159 -30.5052 2
      vertex -60.6763 -44.0839 2
    endloop
  endfacet
  facet normal 0.866025 0.5 -0
    outer loop
      vertex -60.6763 -44.0839 0
      vertex -68.5159 -30.5052 0
      vertex -60.6763 -44.0839 2
    endloop
  endfacet
  facet normal 0.951057 0.309017 -0
    outer loop
      vertex -73.3611 -15.5934 0
      vertex -73.3611 -15.5934 2
      vertex -68.5159 -30.5052 2
    endloop
  endfacet
  facet normal 0.951057 0.309017 -0
    outer loop
      vertex -68.5159 -30.5052 0
      vertex -73.3611 -15.5934 0
      vertex -68.5159 -30.5052 2
    endloop
  endfacet
  facet normal -0.743145 0.669131 0
    outer loop
      vertex 60.6763 -44.0839 0
      vertex 50.1848 -55.7359 2
      vertex 60.6763 -44.0839 2
    endloop
  endfacet
  facet normal -0.743145 0.669131 0
    outer loop
      vertex 60.6763 -44.0839 0
      vertex 50.1848 -55.7359 0
      vertex 50.1848 -55.7359 2
    endloop
  endfacet
  facet normal -0.587785 0.809017 0
    outer loop
      vertex 50.1848 -55.7359 0
      vertex 37.5 -64.9519 2
      vertex 50.1848 -55.7359 2
    endloop
  endfacet
  facet normal -0.587785 0.809017 0
    outer loop
      vertex 50.1848 -55.7359 0
      vertex 37.5 -64.9519 0
      vertex 37.5 -64.9519 2
    endloop
  endfacet
  facet normal -0.743145 -0.669131 0
    outer loop
      vertex 50.1848 55.7359 0
      vertex 60.6763 44.0839 0
      vertex 60.6763 44.0839 2
    endloop
  endfacet
  facet normal -0.743145 -0.669131 -0
    outer loop
      vertex 50.1848 55.7359 2
      vertex 50.1848 55.7359 0
      vertex 60.6763 44.0839 2
    endloop
  endfacet
  facet normal 0.587785 -0.809017 0
    outer loop
      vertex -50.1848 55.7359 2
      vertex -37.5 64.9519 0
      vertex -37.5 64.9519 2
    endloop
  endfacet
  facet normal 0.587785 -0.809017 0
    outer loop
      vertex -50.1848 55.7359 2
      vertex -50.1848 55.7359 0
      vertex -37.5 64.9519 0
    endloop
  endfacet
  facet normal 0.406737 -0.913545 0
    outer loop
      vertex -37.5 64.9519 2
      vertex -23.1763 71.3292 0
      vertex -23.1763 71.3292 2
    endloop
  endfacet
  facet normal 0.406737 -0.913545 0
    outer loop
      vertex -37.5 64.9519 2
      vertex -37.5 64.9519 0
      vertex -23.1763 71.3292 0
    endloop
  endfacet
  facet normal 0.207912 -0.978148 0
    outer loop
      vertex -23.1763 71.3292 2
      vertex -7.83963 74.5891 0
      vertex -7.83963 74.5891 2
    endloop
  endfacet
  facet normal 0.207912 -0.978148 0
    outer loop
      vertex -23.1763 71.3292 2
      vertex -23.1763 71.3292 0
      vertex -7.83963 74.5891 0
    endloop
  endfacet
  facet normal 0.951057 -0.309017 0
    outer loop
      vertex -73.3611 15.5934 2
      vertex -68.5159 30.5052 0
      vertex -68.5159 30.5052 2
    endloop
  endfacet
  facet normal 0.951057 -0.309017 0
    outer loop
      vertex -73.3611 15.5934 2
      vertex -73.3611 15.5934 0
      vertex -68.5159 30.5052 0
    endloop
  endfacet
  facet normal -0.207912 -0.978148 0
    outer loop
      vertex 7.83963 74.5891 2
      vertex 23.1763 71.3292 0
      vertex 23.1763 71.3292 2
    endloop
  endfacet
  facet normal -0.207912 -0.978148 -0
    outer loop
      vertex 7.83963 74.5891 2
      vertex 7.83963 74.5891 0
      vertex 23.1763 71.3292 0
    endloop
  endfacet
  facet normal -0.406737 -0.913545 0
    outer loop
      vertex 23.1763 71.3292 2
      vertex 37.5 64.9519 0
      vertex 37.5 64.9519 2
    endloop
  endfacet
  facet normal -0.406737 -0.913545 -0
    outer loop
      vertex 23.1763 71.3292 2
      vertex 23.1763 71.3292 0
      vertex 37.5 64.9519 0
    endloop
  endfacet
endsolid OpenSCAD_Model
