solid OpenSCAD_Model
  facet normal -1 0 0
    outer loop
      vertex 0 0 4
      vertex 0 10 0
      vertex 0 0 0
    endloop
  endfacet
  facet normal -1 0 0
    outer loop
      vertex 0 0 4
      vertex 0 10 4
      vertex 0 10 0
    endloop
  endfacet
  facet normal 0 -1 0
    outer loop
      vertex 10 0 0
      vertex 0 0 4
      vertex 0 0 0
    endloop
  endfacet
  facet normal 0 -1 0
    outer loop
      vertex 10 0 0
      vertex 10 0 4
      vertex 0 0 4
    endloop
  endfacet
  facet normal 0 0 -1
    outer loop
      vertex 0 10 0
      vertex 10 0 0
      vertex 0 0 0
    endloop
  endfacet
  facet normal 0 0 -1
    outer loop
      vertex 0 10 0
      vertex 10 10 0
      vertex 10 0 0
    endloop
  endfacet
  facet normal 0 1 0
    outer loop
      vertex 0 10 4
      vertex 10 10 0
      vertex 0 10 0
    endloop
  endfacet
  facet normal -0 1 0
    outer loop
      vertex 0 10 4
      vertex 10 10 4
      vertex 10 10 0
    endloop
  endfacet
  facet normal 0 0 1
    outer loop
      vertex 10 0 4
      vertex 0 10 4
      vertex 0 0 4
    endloop
  endfacet
  facet normal 0 -0 1
    outer loop
      vertex 10 0 4
      vertex 10 10 4
      vertex 0 10 4
    endloop
  endfacet
  facet normal 1 0 0
    outer loop
      vertex 10 10 0
      vertex 10 0 4
      vertex 10 0 0
    endloop
  endfacet
  facet normal 1 0 -0
    outer loop
      vertex 10 10 0
      vertex 10 10 4
      vertex 10 0 4
    endloop
  endfacet
  facet normal -1 0 0
    outer loop
      vertex 20 0 4
      vertex 20 10 0
      vertex 20 0 0
    endloop
  endfacet
  facet normal -1 0 0
    outer loop
      vertex 20 0 4
      vertex 20 10 4
      vertex 20 10 0
    endloop
  endfacet
  facet normal 0 -1 0
    outer loop
      vertex 30 0 0
      vertex 20 0 4
      vertex 20 0 0
    endloop
  endfacet
  facet normal 0 -1 0
    outer loop
      vertex 30 0 0
      vertex 30 0 4
      vertex 20 0 4
    endloop
  endfacet
  facet normal 0 0 -1
    outer loop
      vertex 20 10 0
      vertex 30 0 0
      vertex 20 0 0
    endloop
  endfacet
  facet normal 0 0 -1
    outer loop
      vertex 20 10 0
      vertex 30 10 0
      vertex 30 0 0
    endloop
  endfacet
  facet normal 0 1 0
    outer loop
      vertex 20 10 4
      vertex 30 10 0
      vertex 20 10 0
    endloop
  endfacet
  facet normal -0 1 0
    outer loop
      vertex 20 10 4
      vertex 30 10 4
      vertex 30 10 0
    endloop
  endfacet
  facet normal 0 0 1
    outer loop
      vertex 30 0 4
      vertex 20 10 4
      vertex 20 0 4
    endloop
  endfacet
  facet normal 0 -0 1
    outer loop
      vertex 30 0 4
      vertex 30 10 4
      vertex 20 10 4
    endloop
  endfacet
  facet normal 1 0 0
    outer loop
      vertex 30 10 0
      vertex 30 0 4
      vertex 30 0 0
    endloop
  endfacet
  facet normal 1 0 -0
    outer loop
      vertex 30 10 0
      vertex 30 10 4
      vertex 30 0 4
    endloop
  endfacet
  facet normal -1 0 0
    outer loop
      vertex 40 0 4
      vertex 40 10 0
      vertex 40 0 0
    endloop
  endfacet
  facet normal -1 0 0
    outer loop
      vertex 40 0 4
      vertex 40 10 4
      vertex 40 10 0
    endloop
  endfacet
  facet normal 0 -1 0
    outer loop
      vertex 50 0 0
      vertex 40 0 4
      vertex 40 0 0
    endloop
  endfacet
  facet normal 0 -1 0
    outer loop
      vertex 50 0 0
      vertex 50 0 4
      vertex 40 0 4
    endloop
  endfacet
  facet normal 0 0 -1
    outer loop
      vertex 40 10 0
      vertex 50 0 0
      vertex 40 0 0
    endloop
  endfacet
  facet normal 0 0 -1
    outer loop
      vertex 40 10 0
      vertex 50 10 0
      vertex 50 0 0
    endloop
  endfacet
  facet normal 0 1 0
    outer loop
      vertex 40 10 4
      vertex 50 10 0
      vertex 40 10 0
    endloop
  endfacet
  facet normal -0 1 0
    outer loop
      vertex 40 10 4
      vertex 50 10 4
      vertex 50 10 0
    endloop
  endfacet
  facet normal 0 0 1
    outer loop
      vertex 50 0 4
      vertex 40 10 4
      vertex 40 0 4
    endloop
  endfacet
  facet normal 0 -0 1
    outer loop
      vertex 50 0 4
      vertex 50 10 4
      vertex 40 10 4
    endloop
  endfacet
  facet normal 1 0 0
    outer loop
      vertex 50 10 0
      vertex 50 0 4
      vertex 50 0 0
    endloop
  endfacet
  facet normal 1 0 -0
    outer loop
      vertex 50 10 0
      vertex 50 10 4
      vertex 50 0 4
    endloop
  endfacet
  facet normal -1 0 0
    outer loop
      vertex 60 0 4
      vertex 60 10 0
      vertex 60 0 0
    endloop
  endfacet
  facet normal -1 0 0
    outer loop
      vertex 60 0 4
      vertex 60 10 4
      vertex 60 10 0
    endloop
  endfacet
  facet normal 0 -1 0
    outer loop
      vertex 70 0 0
      vertex 60 0 4
      vertex 60 0 0
    endloop
  endfacet
  facet normal 0 -1 0
    outer loop
      vertex 70 0 0
      vertex 70 0 4
      vertex 60 0 4
    endloop
  endfacet
  facet normal 0 0 -1
    outer loop
      vertex 60 10 0
      vertex 70 0 0
      vertex 60 0 0
    endloop
  endfacet
  facet normal 0 0 -1
    outer loop
      vertex 60 10 0
      vertex 70 10 0
      vertex 70 0 0
    endloop
  endfacet
  facet normal 0 1 0
    outer loop
      vertex 60 10 4
      vertex 70 10 0
      vertex 60 10 0
    endloop
  endfacet
  facet normal -0 1 0
    outer loop
      vertex 60 10 4
      vertex 70 10 4
      vertex 70 10 0
    endloop
  endfacet
  facet normal 0 0 1
    outer loop
      vertex 70 0 4
      vertex 60 10 4
      vertex 60 0 4
    endloop
  endfacet
  facet normal 0 -0 1
    outer loop
      vertex 70 0 4
      vertex 70 10 4
      vertex 60 10 4
    endloop
  endfacet
  facet normal 1 0 0
    outer loop
      vertex 70 10 0
      vertex 70 0 4
      vertex 70 0 0
    endloop
  endfacet
  facet normal 1 0 -0
    outer loop
      vertex 70 10 0
      vertex 70 10 4
      vertex 70 0 4
    endloop
  endfacet
  facet normal -1 0 0
    outer loop
      vertex 80 0 4
      vertex 80 10 0
      vertex 80 0 0
    endloop
  endfacet
  facet normal -1 0 0
    outer loop
      vertex 80 0 4
      vertex 80 10 4
      vertex 80 10 0
    endloop
  endfacet
  facet normal 0 -1 0
    outer loop
      vertex 90 0 0
      vertex 80 0 4
      vertex 80 0 0
    endloop
  endfacet
  facet normal 0 -1 0
    outer loop
      vertex 90 0 0
      vertex 90 0 4
      vertex 80 0 4
    endloop
  endfacet
  facet normal 0 0 -1
    outer loop
      vertex 80 10 0
      vertex 90 0 0
      vertex 80 0 0
    endloop
  endfacet
  facet normal 0 0 -1
    outer loop
      vertex 80 10 0
      vertex 90 10 0
      vertex 90 0 0
    endloop
  endfacet
  facet normal 0 1 0
    outer loop
      vertex 80 10 4
      vertex 90 10 0
      vertex 80 10 0
    endloop
  endfacet
  facet normal -0 1 0
    outer loop
      vertex 80 10 4
      vertex 90 10 4
      vertex 90 10 0
    endloop
  endfacet
  facet normal 0 0 1
    outer loop
      vertex 90 0 4
      vertex 80 10 4
      vertex 80 0 4
    endloop
  endfacet
  facet normal 0 -0 1
    outer loop
      vertex 90 0 4
      vertex 90 10 4
      vertex 80 10 4
    endloop
  endfacet
  facet normal 1 0 0
    outer loop
      vertex 90 10 0
      vertex 90 0 4
      vertex 90 0 0
    endloop
  endfacet
  facet normal 1 0 -0
    outer loop
      vertex 90 10 0
      vertex 90 10 4
      vertex 90 0 4
    endloop
  endfacet
  facet normal -1 0 0
    outer loop
      vertex 0 20 4
      vertex 0 30 0
      vertex 0 20 0
    endloop
  endfacet
  facet normal -1 0 0
    outer loop
      vertex 0 20 4
      vertex 0 30 4
      vertex 0 30 0
    endloop
  endfacet
  facet normal 0 -1 0
    outer loop
      vertex 10 20 0
      vertex 0 20 4
      vertex 0 20 0
    endloop
  endfacet
  facet normal 0 -1 0
    outer loop
      vertex 10 20 0
      vertex 10 20 4
      vertex 0 20 4
    endloop
  endfacet
  facet normal 0 0 -1
    outer loop
      vertex 0 30 0
      vertex 10 20 0
      vertex 0 20 0
    endloop
  endfacet
  facet normal 0 0 -1
    outer loop
      vertex 0 30 0
      vertex 10 30 0
      vertex 10 20 0
    endloop
  endfacet
  facet normal 0 1 0
    outer loop
      vertex 0 30 4
      vertex 10 30 0
      vertex 0 30 0
    endloop
  endfacet
  facet normal -0 1 0
    outer loop
      vertex 0 30 4
      vertex 10 30 4
      vertex 10 30 0
    endloop
  endfacet
  facet normal 0 0 1
    outer loop
      vertex 10 20 4
      vertex 0 30 4
      vertex 0 20 4
    endloop
  endfacet
  facet normal 0 -0 1
    outer loop
      vertex 10 20 4
      vertex 10 30 4
      vertex 0 30 4
    endloop
  endfacet
  facet normal 1 0 0
    outer loop
      vertex 10 30 0
      vertex 10 20 4
      vertex 10 20 0
    endloop
  endfacet
  facet normal 1 0 -0
    outer loop
      vertex 10 30 0
      vertex 10 30 4
      vertex 10 20 4
    endloop
  endfacet
  facet normal -1 0 0
    outer loop
      vertex 20 20 4
      vertex 20 30 0
      vertex 20 20 0
    endloop
  endfacet
  facet normal -1 0 0
    outer loop
      vertex 20 20 4
      vertex 20 30 4
      vertex 20 30 0
    endloop
  endfacet
  facet normal 0 -1 0
    outer loop
      vertex 30 20 0
      vertex 20 20 4
      vertex 20 20 0
    endloop
  endfacet
  facet normal 0 -1 0
    outer loop
      vertex 30 20 0
      vertex 30 20 4
      vertex 20 20 4
    endloop
  endfacet
  facet normal 0 0 -1
    outer loop
      vertex 20 30 0
      vertex 30 20 0
      vertex 20 20 0
    endloop
  endfacet
  facet normal 0 0 -1
    outer loop
      vertex 20 30 0
      vertex 30 30 0
      vertex 30 20 0
    endloop
  endfacet
  facet normal 0 1 0
    outer loop
      vertex 20 30 4
      vertex 30 30 0
      vertex 20 30 0
    endloop
  endfacet
  facet normal -0 1 0
    outer loop
      vertex 20 30 4
      vertex 30 30 4
      vertex 30 30 0
    endloop
  endfacet
  facet normal 0 0 1
    outer loop
      vertex 30 20 4
      vertex 20 30 4
      vertex 20 20 4
    endloop
  endfacet
  facet normal 0 -0 1
    outer loop
      vertex 30 20 4
      vertex 30 30 4
      vertex 20 30 4
    endloop
  endfacet
  facet normal 1 0 0
    outer loop
      vertex 30 30 0
      vertex 30 20 4
      vertex 30 20 0
    endloop
  endfacet
  facet normal 1 0 -0
    outer loop
      vertex 30 30 0
      vertex 30 30 4
      vertex 30 20 4
    endloop
  endfacet
  facet normal -1 0 0
    outer loop
      vertex 40 20 4
      vertex 40 30 0
      vertex 40 20 0
    endloop
  endfacet
  facet normal -1 0 0
    outer loop
      vertex 40 20 4
      vertex 40 30 4
      vertex 40 30 0
    endloop
  endfacet
  facet normal 0 -1 0
    outer loop
      vertex 50 20 0
      vertex 40 20 4
      vertex 40 20 0
    endloop
  endfacet
  facet normal 0 -1 0
    outer loop
      vertex 50 20 0
      vertex 50 20 4
      vertex 40 20 4
    endloop
  endfacet
  facet normal 0 0 -1
    outer loop
      vertex 40 30 0
      vertex 50 20 0
      vertex 40 20 0
    endloop
  endfacet
  facet normal 0 0 -1
    outer loop
      vertex 40 30 0
      vertex 50 30 0
      vertex 50 20 0
    endloop
  endfacet
  facet normal 0 1 0
    outer loop
      vertex 40 30 4
      vertex 50 30 0
      vertex 40 30 0
    endloop
  endfacet
  facet normal -0 1 0
    outer loop
      vertex 40 30 4
      vertex 50 30 4
      vertex 50 30 0
    endloop
  endfacet
  facet normal 0 0 1
    outer loop
      vertex 50 20 4
      vertex 40 30 4
      vertex 40 20 4
    endloop
  endfacet
  facet normal 0 -0 1
    outer loop
      vertex 50 20 4
      vertex 50 30 4
      vertex 40 30 4
    endloop
  endfacet
  facet normal 1 0 0
    outer loop
      vertex 50 30 0
      vertex 50 20 4
      vertex 50 20 0
    endloop
  endfacet
  facet normal 1 0 -0
    outer loop
      vertex 50 30 0
      vertex 50 30 4
      vertex 50 20 4
    endloop
  endfacet
  facet normal -1 0 0
    outer loop
      vertex 60 20 4
      vertex 60 30 0
      vertex 60 20 0
    endloop
  endfacet
  facet normal -1 0 0
    outer loop
      vertex 60 20 4
      vertex 60 30 4
      vertex 60 30 0
    endloop
  endfacet
  facet normal 0 -1 0
    outer loop
      vertex 70 20 0
      vertex 60 20 4
      vertex 60 20 0
    endloop
  endfacet
  facet normal 0 -1 0
    outer loop
      vertex 70 20 0
      vertex 70 20 4
      vertex 60 20 4
    endloop
  endfacet
  facet normal 0 0 -1
    outer loop
      vertex 60 30 0
      vertex 70 20 0
      vertex 60 20 0
    endloop
  endfacet
  facet normal 0 0 -1
    outer loop
      vertex 60 30 0
      vertex 70 30 0
      vertex 70 20 0
    endloop
  endfacet
  facet normal 0 1 0
    outer loop
      vertex 60 30 4
      vertex 70 30 0
      vertex 60 30 0
    endloop
  endfacet
  facet normal -0 1 0
    outer loop
      vertex 60 30 4
      vertex 70 30 4
      vertex 70 30 0
    endloop
  endfacet
  facet normal 0 0 1
    outer loop
      vertex 70 20 4
      vertex 60 30 4
      vertex 60 20 4
    endloop
  endfacet
  facet normal 0 -0 1
    outer loop
      vertex 70 20 4
      vertex 70 30 4
      vertex 60 30 4
    endloop
  endfacet
  facet normal 1 0 0
    outer loop
      vertex 70 30 0
      vertex 70 20 4
      vertex 70 20 0
    endloop
  endfacet
  facet normal 1 0 -0
    outer loop
      vertex 70 30 0
      vertex 70 30 4
      vertex 70 20 4
    endloop
  endfacet
  facet normal -1 0 0
    outer loop
      vertex 80 20 4
      vertex 80 30 0
      vertex 80 20 0
    endloop
  endfacet
  facet normal -1 0 0
    outer loop
      vertex 80 20 4
      vertex 80 30 4
      vertex 80 30 0
    endloop
  endfacet
  facet normal 0 -1 0
    outer loop
      vertex 90 20 0
      vertex 80 20 4
      vertex 80 20 0
    endloop
  endfacet
  facet normal 0 -1 0
    outer loop
      vertex 90 20 0
      vertex 90 20 4
      vertex 80 20 4
    endloop
  endfacet
  facet normal 0 0 -1
    outer loop
      vertex 80 30 0
      vertex 90 20 0
      vertex 80 20 0
    endloop
  endfacet
  facet normal 0 0 -1
    outer loop
      vertex 80 30 0
      vertex 90 30 0
      vertex 90 20 0
    endloop
  endfacet
  facet normal 0 1 0
    outer loop
      vertex 80 30 4
      vertex 90 30 0
      vertex 80 30 0
    endloop
  endfacet
  facet normal -0 1 0
    outer loop
      vertex 80 30 4
      vertex 90 30 4
      vertex 90 30 0
    endloop
  endfacet
  facet normal 0 0 1
    outer loop
      vertex 90 20 4
      vertex 80 30 4
      vertex 80 20 4
    endloop
  endfacet
  facet normal 0 -0 1
    outer loop
      vertex 90 20 4
      vertex 90 30 4
      vertex 80 30 4
    endloop
  endfacet
  facet normal 1 0 0
    outer loop
      vertex 90 30 0
      vertex 90 20 4
      vertex 90 20 0
    endloop
  endfacet
  facet normal 1 0 -0
    outer loop
      vertex 90 30 0
      vertex 90 30 4
      vertex 90 20 4
    endloop
  endfacet
endsolid OpenSCAD_Model
