solid OpenSCAD_Model
  facet normal -1 0 0
    outer loop
      vertex 0 0 0
      vertex 0 24 50
      vertex 0 24 0
    endloop
  endfacet
  facet normal -1 -0 0
    outer loop
      vertex 0 24 50
      vertex 0 0 0
      vertex 0 0 50
    endloop
  endfacet
  facet normal 0 0 1
    outer loop
      vertex 24 24 50
      vertex 22.025 22.025 50
      vertex 24 0 50
    endloop
  endfacet
  facet normal 0 0 1
    outer loop
      vertex 24 24 50
      vertex 1.975 22.025 50
      vertex 22.025 22.025 50
    endloop
  endfacet
  facet normal 0 0 1
    outer loop
      vertex 1.975 22.025 50
      vertex 0 24 50
      vertex 1.975 1.975 50
    endloop
  endfacet
  facet normal -0 0 1
    outer loop
      vertex 0 24 50
      vertex 1.975 22.025 50
      vertex 24 24 50
    endloop
  endfacet
  facet normal -0 0 1
    outer loop
      vertex 22.025 1.975 50
      vertex 24 0 50
      vertex 22.025 22.025 50
    endloop
  endfacet
  facet normal -0 0 1
    outer loop
      vertex 1.975 1.975 50
      vertex 24 0 50
      vertex 22.025 1.975 50
    endloop
  endfacet
  facet normal 0 0 1
    outer loop
      vertex 1.975 1.975 50
      vertex 0 0 50
      vertex 24 0 50
    endloop
  endfacet
  facet normal 0 0 1
    outer loop
      vertex 0 0 50
      vertex 1.975 1.975 50
      vertex 0 24 50
    endloop
  endfacet
  facet normal 1 -0 0
    outer loop
      vertex 24 0 50
      vertex 24 24 0
      vertex 24 24 50
    endloop
  endfacet
  facet normal 1 0 0
    outer loop
      vertex 24 24 0
      vertex 24 0 50
      vertex 24 0 0
    endloop
  endfacet
  facet normal 0 1 -0
    outer loop
      vertex 24 24 0
      vertex 0 24 50
      vertex 24 24 50
    endloop
  endfacet
  facet normal 0 1 0
    outer loop
      vertex 0 24 50
      vertex 24 24 0
      vertex 0 24 0
    endloop
  endfacet
  facet normal 0 0 -1
    outer loop
      vertex 24 0 0
      vertex 22.025 1.975 0
      vertex 24 24 0
    endloop
  endfacet
  facet normal 0 0 -1
    outer loop
      vertex 24 0 0
      vertex 1.975 1.975 0
      vertex 22.025 1.975 0
    endloop
  endfacet
  facet normal -0 0 -1
    outer loop
      vertex 1.975 1.975 0
      vertex 0 0 0
      vertex 1.975 22.025 0
    endloop
  endfacet
  facet normal 0 0 -1
    outer loop
      vertex 0 0 0
      vertex 1.975 1.975 0
      vertex 24 0 0
    endloop
  endfacet
  facet normal 0 0 -1
    outer loop
      vertex 22.025 22.025 0
      vertex 24 24 0
      vertex 22.025 1.975 0
    endloop
  endfacet
  facet normal 0 0 -1
    outer loop
      vertex 1.975 22.025 0
      vertex 24 24 0
      vertex 22.025 22.025 0
    endloop
  endfacet
  facet normal 0 0 -1
    outer loop
      vertex 1.975 22.025 0
      vertex 0 24 0
      vertex 24 24 0
    endloop
  endfacet
  facet normal 0 0 -1
    outer loop
      vertex 0 24 0
      vertex 1.975 22.025 0
      vertex 0 0 0
    endloop
  endfacet
  facet normal 0 -1 0
    outer loop
      vertex 0 0 0
      vertex 24 0 50
      vertex 0 0 50
    endloop
  endfacet
  facet normal 0 -1 -0
    outer loop
      vertex 24 0 50
      vertex 0 0 0
      vertex 24 0 0
    endloop
  endfacet
  facet normal 1 -0 0
    outer loop
      vertex 1.975 1.975 50
      vertex 1.975 22.025 0
      vertex 1.975 22.025 50
    endloop
  endfacet
  facet normal 1 0 0
    outer loop
      vertex 1.975 22.025 0
      vertex 1.975 1.975 50
      vertex 1.975 1.975 0
    endloop
  endfacet
  facet normal -1 0 0
    outer loop
      vertex 22.025 1.975 0
      vertex 22.025 22.025 50
      vertex 22.025 22.025 0
    endloop
  endfacet
  facet normal -1 -0 0
    outer loop
      vertex 22.025 22.025 50
      vertex 22.025 1.975 0
      vertex 22.025 1.975 50
    endloop
  endfacet
  facet normal 0 -1 0
    outer loop
      vertex 1.975 22.025 0
      vertex 22.025 22.025 50
      vertex 1.975 22.025 50
    endloop
  endfacet
  facet normal 0 -1 -0
    outer loop
      vertex 22.025 22.025 50
      vertex 1.975 22.025 0
      vertex 22.025 22.025 0
    endloop
  endfacet
  facet normal 0 1 -0
    outer loop
      vertex 22.025 1.975 0
      vertex 1.975 1.975 50
      vertex 22.025 1.975 50
    endloop
  endfacet
  facet normal 0 1 0
    outer loop
      vertex 1.975 1.975 50
      vertex 22.025 1.975 0
      vertex 1.975 1.975 0
    endloop
  endfacet
endsolid OpenSCAD_Model
